<svg width="12" height="17" viewBox="0 0 12 17" fill="none" xmlns="http://www.w3.org/2000/svg">
<path d="M11.9239 5.18092C11.9239 5.87759 11.8212 6.50459 11.6159 7.06192C11.4106 7.61925 11.1099 8.10325 10.7139 8.51392C10.3179 8.91725 9.83024 9.24725 9.2509 9.50392C8.6789 9.75325 8.02257 9.91825 7.2819 9.99892V12.2649H5.1259V7.86492H6.1599C7.23057 7.86492 8.05557 7.63392 8.6349 7.17192C9.22157 6.70259 9.5149 6.00959 9.5149 5.09292C9.5149 4.68959 9.43424 4.31192 9.2729 3.95992C9.1189 3.60059 8.89524 3.28892 8.6019 3.02492C8.3159 2.76092 7.96757 2.55192 7.5569 2.39792C7.15357 2.24392 6.70257 2.16692 6.2039 2.16692C5.6319 2.16692 5.12957 2.23659 4.6969 2.37592C4.27157 2.50792 3.9049 2.70592 3.5969 2.96992C3.2889 3.22659 3.0359 3.54559 2.8379 3.92692C2.6399 4.30825 2.4859 4.74459 2.3759 5.23592L-9.76399e-05 4.87292C0.168569 4.02225 0.443569 3.28892 0.824902 2.67292C1.20624 2.05692 1.66457 1.55092 2.1999 1.15492C2.74257 0.758922 3.34757 0.469255 4.0149 0.285921C4.68957 0.0952545 5.40457 -7.84397e-05 6.1599 -7.84397e-05C7.00324 -7.84397e-05 7.7769 0.120922 8.4809 0.362921C9.1849 0.597588 9.7899 0.938588 10.2959 1.38592C10.8092 1.82592 11.2089 2.36859 11.4949 3.01392C11.7809 3.65192 11.9239 4.37425 11.9239 5.18092ZM5.1259 16.1699V13.9369H7.2819V16.1699H5.1259Z" fill="#46332C"/>
</svg>
