<svg width="21" height="27" viewBox="0 0 21 27" fill="none" xmlns="http://www.w3.org/2000/svg">
<path d="M0 27V8H4V7C4 5.86205 4.2221 4.79688 5 4C5.7779 3.20312 6.88914 3 8 3C9.11086 3 10.2221 3.20312 11 4C11.7779 4.79688 12 5.86205 12 7V8H16V27H0ZM1 26H15V9H12V12H11V9H5V12H4V9H1V26ZM5 8H11V7C11 6.1758 10.5501 5.56351 10 5C9.4499 4.43649 8.80457 4 8 4C7.19543 4 6.5501 4.43649 6 5C5.4499 5.56351 5 6.1758 5 7V8Z" fill="white"/>
<circle cx="15" cy="6" r="6" fill="white"/>
<path d="M16 3V8H15V4H14L15 3H16Z" fill="white"/>
</svg>
