<svg width="52" height="80" viewBox="0 0 52 80" fill="none" xmlns="http://www.w3.org/2000/svg">
<path d="M21 37V45C21 46.7962 20.6989 47.6863 21 48C21.1536 48.1722 21.5084 48.9323 22 49H21C20.5145 48.9323 20.1598 48.1722 20 48C19.705 47.6863 20 46.79 20 45V37H21ZM23 25H24C26.4705 25 28.396 25.8128 30 27C31.5856 28.1503 31.9816 29.3637 32 31C33.1677 31.2768 34.115 31.3418 35 32C36.5978 33.1811 38 35.3453 38 37C38 38.4271 37.0447 39.0773 36 40C35.4592 40.4675 34.8174 40.6494 34 41C33.9631 40.877 34.0369 41.1046 34 41C34.5224 40.7232 34.619 40.3322 35 40C36.0263 39.0773 37 38.4271 37 37C37 35.3453 36.604 33.1872 35 32C34.0966 31.3357 32.1677 31.2768 31 31C30.9816 29.3637 30.5978 28.1441 29 27C27.4145 25.8189 25.4705 25 23 25ZM32 32C31.7726 32.8181 31.6822 34.4095 31 35C29.9553 35.9227 28.1018 36.5633 26 37C28.3292 37.4367 29.6971 37.8989 31 39C32.3029 40.0826 33 41.4868 33 43C33 45.0914 32.7576 46.8312 31 48C30.1458 48.5721 29.1799 48.7047 28 49C28.8542 48.7416 29.3363 48.4367 30 48C31.7576 46.8312 33 45.0914 33 43C33 41.4868 32.2844 40.0765 31 39C29.6971 37.9051 27.3107 37.4367 25 37C27.1079 36.5633 28.9553 35.9227 30 35C30.7805 34.3049 30.8095 32.9904 31 32C31.2458 32.1046 31.7911 31.8462 32 32ZM26 43V51C26 52.7777 26.705 53.6863 27 54C27.2766 54.2953 27.8569 53.9692 29 54C27.6234 54 26.295 54.3137 26 54C25.705 53.6863 26 52.7777 26 51V43ZM34 43C33.9816 43.1046 34.0184 42.877 34 43C35.0263 43.3998 36.2871 43.4095 37 44C38.3029 45.0949 39 46.4868 39 48C39 50.0914 37.7761 51.8374 36 53C34.2424 54.1688 32.1834 55 29 55H28C31.2018 55 34.2239 54.1688 36 53C37.7576 51.8312 38 50.0853 38 48C38 46.4868 37.3029 45.0949 36 44C35.4592 43.5448 34.7129 43.3322 34 43ZM23 38C24.1123 38.0492 25.2011 37.7416 26 38V42V38C25.3916 37.7909 23.7866 38.0677 23 38ZM28 42H29C29.0369 42.2461 29 42.7355 29 43C28.8095 43 28.209 43 28 43V42ZM28 31C27.2687 31.0369 27.209 31.7909 27 32C26.7542 32.2461 26 32.5544 26 34V35C25.2871 35.2768 24.9894 35 24 35H23C23.7989 34.9631 25.4039 35.2276 26 35V34C26 32.5544 25.7726 32.2399 26 32C26.2458 31.7539 27.029 31 28 31C28.1229 31 27.8832 31 28 31ZM21 32V36H20V31C20.295 31.0369 20.7788 31.9446 21 32ZM23 26C22.2318 26.0369 21.209 25.7909 21 26C20.7542 26.2584 21 27.5729 21 29V31H20V29C20 27.5729 19.7603 26.2584 20 26C20.2458 25.7539 21.029 26 22 26H23Z" fill="url(#paint0_linear_1050_944)"/>
<path d="M26 0C33.1457 0 39.2966 3.35973 44 8C48.7034 12.6403 52 18.9379 52 26V54C52 61.0498 48.7222 67.3597 44 72C39.2966 76.6588 33.1395 80 26 80C18.8605 80 12.7222 76.6588 8 72C3.27784 67.3412 0 61.0436 0 54V26C0 18.9379 3.29657 12.6588 8 8C12.7222 3.35973 18.8418 0 26 0ZM44 8C39.384 3.446 32.9646 1 26 1C19.0354 1 12.5972 3.446 8 8C3.38402 12.5355 1 19.1105 1 26V54C1 60.8895 3.38402 67.4645 8 72C12.5972 76.5355 19.0167 79 26 79C32.9833 79 39.3903 76.5355 44 72C48.5972 67.4645 51 60.8895 51 54V26C51 19.1105 48.5972 12.5355 44 8Z" fill="url(#paint1_linear_1050_944)"/>
<path d="M25 1C31.7338 1 38.5647 3.60738 43 8C47.4478 12.3865 50 18.3249 50 25V54C50 60.6689 47.454 66.5889 43 71C38.546 75.4111 31.74 78 25 78C18.26 78 12.4353 75.3926 8 71C3.56465 66.6074 1 60.6751 1 54V25C1 18.3311 3.55223 12.3926 8 8C12.4291 3.61353 18.26 1 25 1ZM42 9C37.6765 4.71812 31.5598 2 25 2C18.4402 2 13.3297 4.71812 9 9C4.67647 13.3003 2 18.4849 2 25V54C2 60.4966 4.67647 65.712 9 70C13.3235 74.3003 18.4215 77 25 77C31.5785 77 37.6703 74.3003 42 70C46.3235 65.7181 49 60.4966 49 54V25C49 18.4849 46.3235 13.3065 42 9Z" fill="url(#paint2_linear_1050_944)"/>
<path d="M26 9C30.6777 9 34.9187 10.9078 38 14C41.0813 17.0922 43 21.3058 43 26V54C43 58.6942 41.0813 62.9078 38 66C34.9187 69.0922 30.6777 71 26 71C21.3223 71 17.0813 69.0922 14 66C10.9187 62.9078 9 58.6942 9 54V26C9 21.3058 10.9187 17.0922 14 14C17.0813 10.9078 21.3223 9 26 9ZM38 14C35.0238 11.0319 30.4983 10 26 10C21.5017 10 16.9576 11.0319 14 14C11.0424 16.9681 10 21.4858 10 26V54C10 58.5328 11.0238 63.0319 14 66C16.9576 68.9867 21.4832 70 26 70C30.5168 70 35.0238 68.9867 38 66C40.9762 63.0133 42 58.5328 42 54V26C42 21.4796 40.9576 16.9867 38 14Z" fill="url(#paint3_linear_1050_944)"/>
<path d="M7.99987 29C7.99987 29.0369 8.03127 29 7.99987 29H3.99987C3.96219 29 3.99987 29.0307 3.99987 29V28C3.96847 28 3.99987 27.9631 3.99987 28H7.99987C7.99987 27.9693 8.03755 28 7.99987 28V29ZM7.99987 33C7.99987 33.0369 8.03127 33 7.99987 33H6.99987C6.94963 33 6.99987 33.0307 6.99987 33V32H3.99987C3.96219 32 3.99987 32.0307 3.99987 32V31C3.96847 31 3.99987 30.9631 3.99987 31H6.99987V30C6.96847 30 6.99987 29.9631 6.99987 30H7.99987C7.99987 29.9693 8.03755 30 7.99987 30V33ZM3.99987 37C3.99987 37 3.99987 37.0307 3.99987 37V36C3.96847 36 3.99987 35.9631 3.99987 36H4.99987V34H3.99987C3.96219 34 3.99987 34.0123 3.99987 34V33C3.94963 33 3.99987 32.9509 3.99987 33L7.99987 35C7.99987 34.9693 7.99987 35 7.99987 35C7.99987 35.0369 8.01871 35 7.99987 35L3.99987 37ZM4.99987 34V36L6.99987 35L4.99987 34ZM7.99987 38C7.99987 38.0491 8.03127 38 7.99987 38H3.99987V40C3.99987 40.0369 4.03127 40 3.99987 40C3.96219 40 3.99987 40.0307 3.99987 40V38C3.96847 38 3.99987 37.9631 3.99987 38H7.99987C8.03755 38 7.99987 37.9693 7.99987 38ZM7.99987 42C7.99987 42.0369 8.03127 42 7.99987 42H3.99987C3.96219 42 3.99987 42.0307 3.99987 42V41C3.96847 41 3.99987 40.9631 3.99987 41H7.99987C7.99987 40.9693 8.03755 41 7.99987 41V42ZM3.99987 46C3.99987 46 3.99987 46.0307 3.99987 46C3.96847 46.0184 3.99987 45.9631 3.99987 46L4.99987 45V44H3.99987C3.96219 44 3.99987 43.0307 3.99987 43C3.94963 43 3.99987 42.9509 3.99987 43L7.99987 44C7.99987 43.9693 7.99987 44 7.99987 44V45C7.99987 45.0369 8.01871 45 7.99987 45L3.99987 46ZM4.99987 44V45H6.99987L4.99987 44ZM3.99987 50C3.99987 49.9631 3.98103 49.0184 3.99987 49L6.99987 48H3.99987C3.96219 48 3.99987 48.0307 3.99987 48V47C3.96847 47 3.99987 46.9631 3.99987 47H7.99987C7.99987 46.9693 8.03755 47 7.99987 47V48C7.99987 48.0369 8.01871 47.9816 7.99987 48L4.99987 50H7.99987C7.99987 49.9509 8.03755 50 7.99987 50C7.99987 50.0369 8.03127 50 7.99987 50H3.99987C3.99987 50.0307 3.96219 50 3.99987 50ZM3.99987 53C3.94963 53 3.99987 52.9631 3.99987 53H7.99987C7.99987 52.9693 8.03755 53 7.99987 53C7.99987 53.0491 8.03127 53 7.99987 53L5.99987 54V55H7.99987C7.99987 54.9693 8.03755 55 7.99987 55V56C7.99987 56.0369 8.03127 56 7.99987 56H3.99987C3.96219 56 3.99987 56.0307 3.99987 56V55C3.96847 55 3.99987 54.9509 3.99987 55H5.99987V54H3.99987C3.96219 54 3.99987 54.0307 3.99987 54V53ZM4.99987 60C4.99987 60 5.01243 60.0369 4.99987 60C4.96219 60.0184 4.99987 59.9631 4.99987 60L5.99987 59L4.99987 58H3.99987C3.96219 58 4.01871 58.0307 3.99987 58V57C3.96219 56.9816 3.98103 56.9631 3.99987 57L7.99987 58C7.98103 57.9693 8.03755 58 7.99987 58C8.01871 57.9816 8.01871 58.0369 7.99987 58L4.99987 60ZM5.99987 58V59L7.99987 58H5.99987ZM5.99987 63C5.98103 63.0184 5.99987 63 5.99987 63L7.99987 61L5.99987 62C5.96219 62.0184 5.01871 62.0369 4.99987 62V61C4.96219 61.0184 4.98103 60.9631 4.99987 61L8.99987 60C8.98103 59.9631 9.03755 59.9816 8.99987 60V61C9.01871 60.9816 9.01871 61.0369 8.99987 61L6.99987 63L9.99987 62C9.98103 61.9631 10.0376 62 9.99987 62C10.0187 62.0369 10.0376 61.9816 9.99987 62L5.99987 64C5.96219 64.0184 6.01871 64.0369 5.99987 64V63ZM10.9999 64C11.339 64.4668 11.0501 64.6007 10.9999 65C10.9622 65.3808 11.4458 66.6867 10.9999 67H9.99987C9.5037 67.3624 9.40811 67.0491 8.99987 67C8.57279 66.9324 8.33903 66.4668 7.99987 66H6.99987C6.98103 65.9631 6.96219 65.0184 6.99987 65L9.99987 63C9.98103 62.9631 10.0376 62.9816 9.99987 63L10.9999 64ZM9.99987 66C10.339 65.7727 10.9622 65.2826 10.9999 65C11.0376 64.7174 11.2511 64.3501 10.9999 64H9.99987L7.99987 66C8.26366 66.3501 8.6984 66.9693 8.99987 67C9.30134 67.0307 9.62931 66.2826 9.99987 66ZM12.9999 70C12.9685 69.9631 12.9999 70 12.9999 70C12.9999 70.0184 13.0187 69.9816 12.9999 70C13.0376 69.9447 12.981 70.0184 12.9999 70C12.8429 70.1536 12.1946 69.9631 11.9999 70C11.7863 70.0491 12.2134 70.086 11.9999 70C11.7863 69.9324 11.1946 70.1904 10.9999 70C10.6607 69.7052 10.0187 69.3317 9.99987 69C9.98103 68.6683 10.7172 68.2948 10.9999 68L11.9999 67C12.2825 66.6867 12.6419 67 12.9999 67C13.3579 67 13.667 66.699 13.9999 67C14.3013 67.2764 13.9622 67.6867 13.9999 68C14.0501 68.3133 14.2511 68.7543 13.9999 69C13.9622 69.0369 14.0376 68.9816 13.9999 69C13.9622 69.0369 14.0187 69.0184 13.9999 69H12.9999C12.9999 69 12.9999 69.0184 12.9999 69C12.9999 68.9816 12.9999 69.0184 12.9999 69C13.2134 68.8096 14.0187 68.2088 13.9999 68C13.9999 67.7727 13.2134 67.2088 12.9999 67C12.7863 66.7912 13.2323 67 12.9999 67C12.7863 67 12.1946 66.7727 11.9999 67L10.9999 68C10.7863 68.2088 10.9999 68.7912 10.9999 69C11.0187 69.2273 10.7675 69.7912 10.9999 70C11.2134 70.2088 11.7863 70 11.9999 70C11.824 70.2088 12.2134 69.9816 11.9999 70H12.9999ZM15.9999 73C15.9999 73 16.0313 73.0184 15.9999 73H14.9999C14.9999 73 14.9999 73.0307 14.9999 73V71L13.9999 72C13.981 72.0369 14.0376 72.0184 13.9999 72H12.9999C12.9622 71.9631 12.981 72.0369 12.9999 72L14.9999 69C14.981 68.9816 15.0187 68.9631 14.9999 69H15.9999C16.3704 69.2457 16.9119 69.7359 16.9999 70C17.0878 70.2641 17.1946 70.7236 16.9999 71C16.8429 71.2273 16.2134 70.9263 15.9999 71C15.8052 71.086 16.2511 71.0676 15.9999 71V73ZM14.9999 71C15.2825 71.172 15.8177 71.0123 15.9999 71C16.182 70.9877 16.8617 71.2088 16.9999 71C17.1255 70.8096 17.0501 70.1597 16.9999 70C16.9496 69.8587 16.2637 70.1536 15.9999 70V69L14.9999 70V71ZM19.9999 75C19.9999 75 20.0313 75.0184 19.9999 75H18.9999C18.9622 75 18.9999 75.0123 18.9999 75V74L17.9999 73L16.9999 74C16.9622 74.0369 17.0376 74.0184 16.9999 74C16.9622 74 16.9685 74.0307 16.9999 74L18.9999 71C18.9622 70.9816 19.0187 70.9631 18.9999 71H19.9999C19.9999 70.9693 20.0376 71.0184 19.9999 71V75ZM17.9999 73H18.9999V71L17.9999 73ZM23.9999 72C23.9999 71.9693 24.0501 72.0184 23.9999 72V73C23.981 73.0369 24.0313 73 23.9999 73L21.9999 72V73L22.9999 74C23.0124 73.9693 23.0376 74 22.9999 74C22.9999 74.0369 23.0313 74 22.9999 74H21.9999L20.9999 75C20.981 75.0369 21.0313 75 20.9999 75C20.9622 75 20.9873 75.0307 20.9999 75L21.9999 72C21.9685 72 22.0187 71.9631 21.9999 72H23.9999ZM26.9999 72C26.9999 71.9693 27.0376 72 26.9999 72V73C26.9999 73.0369 27.0313 73 26.9999 73H25.9999V76C25.9999 76.0369 26.0501 76 25.9999 76H24.9999C24.9622 76 24.9999 76.0491 24.9999 76V73H23.9999C23.9622 73 23.9999 73.0307 23.9999 73V72C23.9685 72 23.9999 71.9631 23.9999 72H26.9999ZM29.9999 72C29.981 71.9693 30.0376 72 29.9999 72C29.9999 72.0369 30.0313 72 29.9999 72L27.9999 73L28.9999 74H29.9999C29.9999 73.9509 30.0501 73.9816 29.9999 74C30.0187 74.0369 30.0376 73.9816 29.9999 74H28.9999V75H29.9999C29.9999 74.9693 30.0376 75 29.9999 75V76C29.9999 76.0369 30.0313 75.9816 29.9999 76H27.9999C27.9496 76 27.9999 76.0307 27.9999 76V72C27.9685 72.0184 27.9999 71.9631 27.9999 72H29.9999ZM31.9999 72C32.5714 71.8096 32.6419 71.8464 32.9999 72C33.3704 72.172 33.824 72.4963 33.9999 73C34.1757 73.559 34.1946 73.6376 33.9999 74C33.824 74.3624 33.5526 74.828 32.9999 75H31.9999C31.9622 75.0184 31.9999 75.0369 31.9999 75L30.9999 72C30.9622 72 30.9999 71.9631 30.9999 72H31.9999ZM33.9999 73C33.8554 72.6192 33.2448 72.1044 32.9999 72C32.7361 71.8772 32.427 71.8587 31.9999 72L32.9999 75C33.427 74.8587 33.8554 74.2764 33.9999 74C34.1255 73.742 34.1443 73.4361 33.9999 73ZM36.9999 70C36.9622 69.9631 37.0376 69.9816 36.9999 70L38.9999 72L39.9999 71C39.981 70.9631 40.0376 70.9631 39.9999 71C40.0187 71.0369 40.0376 71.9631 39.9999 72L38.9999 73C38.9622 73.0369 39.0187 73.0184 38.9999 73L35.9999 70C35.9622 70.0369 35.981 69.9631 35.9999 70H36.9999ZM41.9999 70C42.2134 69.8096 41.9999 69.2273 41.9999 69C41.9999 68.7912 42.2134 68.2088 41.9999 68L39.9999 67C39.981 66.9631 39.981 67.0369 39.9999 67L40.9999 66C40.981 65.9631 41.0187 65.9631 40.9999 66L41.9999 68C42.2825 68.2948 43.0187 68.6683 42.9999 69C42.9999 69.3317 42.3202 69.7052 41.9999 70C41.6796 70.2948 41.3579 70 40.9999 70C40.6419 70 40.3013 70.3133 39.9999 70L38.9999 68C38.981 68.0184 38.9999 68 38.9999 68C38.9622 67.9816 39.0376 67.9816 38.9999 68L40.9999 70C40.7675 69.9816 41.1946 70.2088 40.9999 70C41.2134 70 41.7863 70.1904 41.9999 70ZM42.9999 63C42.9873 63 42.9999 63 42.9999 63L43.9999 65H45.9999C46.0187 64.9877 46.0187 65.0184 45.9999 65V66C45.981 66.0369 46.0313 66 45.9999 66H43.9999V67C43.9999 67.0369 44.0187 67.9816 43.9999 68C43.9999 68 44.0124 68 43.9999 68C43.9873 68 44.0187 68.0184 43.9999 68L42.9999 66H40.9999C40.9999 66 41.0187 66 40.9999 66C40.981 65.9816 40.981 66.0123 40.9999 66V65C40.9685 65 40.9999 65 40.9999 65H42.9999V64C42.981 64.0184 42.9999 64 42.9999 64V63ZM46.9999 63C47.1066 62.742 47.0941 62.2088 46.9999 62C46.9308 61.8096 46.2637 62.1044 45.9999 62L43.9999 61C43.9622 60.9816 43.9873 61.0307 43.9999 61V60C43.9685 59.9816 44.0187 59.9631 43.9999 60L46.9999 61C47.3704 61.172 46.8931 61.6867 46.9999 62C47.1255 62.3317 47.1757 62.613 46.9999 63C46.8052 63.3993 46.3013 63.8833 45.9999 64C45.6796 64.1228 45.4081 64.172 44.9999 64L42.9999 63C42.9622 62.9816 42.9873 63.0369 42.9999 63V62C42.9685 61.9816 43.0187 61.9631 42.9999 62L45.9999 63C45.7863 63.0737 46.2637 63.1228 45.9999 63C46.2134 62.9263 46.8743 63.258 46.9999 63ZM48.9999 58C49.0187 57.9693 49.0187 58.0184 48.9999 58C48.981 58.0369 49.0124 58 48.9999 58L46.9999 59L47.9999 60C47.9999 59.9693 48.0376 60 47.9999 60C47.9999 60.0369 48.0313 60 47.9999 60L44.9999 59C44.9622 59 44.9999 59.0307 44.9999 59V58C45.1066 57.5639 44.7863 57.172 44.9999 57C45.2323 56.828 45.6607 56.9324 45.9999 57C46.2637 57.0491 46.8554 57.8219 46.9999 58C46.981 57.7543 47.1569 58.1536 46.9999 58H48.9999ZM46.9999 59C47.069 58.6867 47.069 58.1536 46.9999 58C46.9308 57.8464 46.2448 58.0553 45.9999 58C45.7675 57.9509 46.1255 57.8956 45.9999 58C45.8554 58.1044 45.069 57.6867 44.9999 58V59H45.9999H46.9999ZM44.9999 54C44.9999 54 45.981 54 45.9999 54L47.9999 55H48.9999C48.9999 54.9693 49.0376 55 48.9999 55C48.9999 55.0491 49.0501 55.0184 48.9999 55H47.9999L44.9999 56C44.9999 56 44.9999 56.0307 44.9999 56C44.981 56.0184 44.9999 55.9631 44.9999 56L46.9999 55L44.9999 54C44.9999 54.0307 44.9999 54 44.9999 54ZM49.9999 52C49.9622 52 50.0187 52.0676 49.9999 52C49.9622 51.8464 49.138 51.0921 48.9999 51C48.8617 50.9079 49.2323 51 48.9999 51H44.9999C44.9496 51 44.9999 51.0307 44.9999 51C44.9496 51 44.9999 50.9631 44.9999 51H48.9999C49.3704 51 49.7675 50.8772 49.9999 51C50.2134 51.1413 49.9496 51.742 49.9999 52C50.0376 52 49.9999 52.0369 49.9999 52ZM44.9999 47C44.9496 47 44.9999 46.9631 44.9999 47H45.9999C45.9999 46.9693 46.0376 47 45.9999 47V49H46.9999V47C46.9685 47 46.9999 46.9509 46.9999 47C46.9999 46.9509 47.0501 47 46.9999 47V49H48.9999V47C48.9685 47 48.9999 46.9631 48.9999 47C48.9999 46.9693 49.0376 47 48.9999 47V49C48.9999 49.0369 49.0313 49 48.9999 49H44.9999C44.9496 49 44.9999 49.0307 44.9999 49V47ZM44.9999 41C44.9873 41 45.0187 40.9816 44.9999 41L48.9999 42C48.9999 41.9693 49.0376 42.0184 48.9999 42V43C48.9999 43.0369 49.0313 43 48.9999 43H46.9999L48.9999 44C48.9999 43.9693 49.0376 44.0184 48.9999 44V45C48.9999 45.0369 49.0313 44.9816 48.9999 45L44.9999 46C44.9622 46 44.9999 46.0307 44.9999 46V45C44.9685 45.0184 44.9999 44.9631 44.9999 45L48.9999 44H45.9999H44.9999C44.9622 44 44.9999 44.0307 44.9999 44V43C44.981 43.0184 44.9999 42.9631 44.9999 43L48.9999 42H44.9999C44.9622 42 44.9999 42.0307 44.9999 42V41ZM44.9999 38C44.9496 38 44.9999 37.9631 44.9999 38H45.9999C45.9999 37.9693 46.0376 38 45.9999 38V39H46.9999V38C46.9685 38 46.9999 37.9631 46.9999 38C46.9999 37.9693 47.0501 38 46.9999 38V39H48.9999V38C48.9685 38 48.9999 37.9631 48.9999 38C48.9999 37.9693 49.0376 38 48.9999 38V40C48.9999 40.0369 49.0313 40 48.9999 40H44.9999C44.9496 40 44.9999 40.0307 44.9999 40V38ZM44.9999 36C44.9999 35.9509 44.9496 35 44.9999 35H48.9999V34C48.9685 34 48.9999 33.9631 48.9999 34C48.9999 33.9693 49.0376 34 48.9999 34V36C48.9999 36.0369 49.0313 36 48.9999 36H44.9999C44.9999 36.0307 44.9496 36 44.9999 36ZM48.9999 30C48.9999 29.9693 48.9999 30 48.9999 30C48.9999 30 49.0313 29.9816 48.9999 30L47.9999 31V32H48.9999C48.9999 31.9693 49.0376 32 48.9999 32C48.9999 32.0369 49.0313 32 48.9999 32H44.9999C44.9496 32 44.9999 32.0307 44.9999 32V31C44.9999 30.5455 45.824 30.2088 45.9999 30C45.6419 30 46.1757 29.7727 45.9999 30C46.2637 30 46.8177 29.8772 46.9999 30C47.1946 30.1228 47.9308 30.7543 47.9999 31L48.9999 30ZM46.9999 31C46.9999 30.6683 47.1066 31.1351 46.9999 31C46.8931 30.8649 46.2511 31 45.9999 31C45.7486 31 46.1066 30.8587 45.9999 31C45.8931 31.1228 45.9999 30.6867 45.9999 31V32H46.9999V31ZM44.9999 26C44.9999 26 44.9999 26.0123 44.9999 26L47.9999 27H48.9999C48.9999 26.9693 49.0376 27 48.9999 27V28C48.9999 28.0369 49.0313 28 48.9999 28H47.9999L44.9999 29C44.9622 29 44.9999 29.0307 44.9999 29V28C44.9685 28 44.9999 27.9631 44.9999 28L46.9999 27H44.9999C44.9622 27 44.9999 26.0307 44.9999 26Z" fill="url(#paint4_linear_1050_944)"/>
<path d="M21 37V45C21 46.7581 20.701 47.6929 21 48C21.1525 48.1686 21.5119 47.9338 22 48V49H14V48C15.6779 47.9338 16.5668 47.4756 17 47C17.4332 46.5424 18 45.6196 18 44V30C18 28.3985 17.4332 27.4756 17 27C16.5668 26.5244 15.6779 26.0482 14 26V25H23C25.4528 25 27.4075 25.838 29 27C30.6047 28.144 32 29.3804 32 31C32 32.3968 31.0189 33.0969 30 34C28.9627 34.9031 28.0867 35.5725 26 36C28.2942 36.4275 29.7065 37.9223 31 39C32.2752 40.0597 33 40.5189 33 42C33 44.0471 31.745 45.856 30 47C29.1336 47.5599 28.1898 48.711 27 49V47C27.2746 46.8495 27.7926 47.1866 28 47C28.9518 46.1149 29 44.8785 29 43C29 40.9048 29.0861 38.9392 28 38C26.9139 37.0608 25.404 37 23 37H21ZM26 49C25.1214 49.1385 24.0189 48.9819 23 49V48C23.1037 48.0181 23.878 48 24 48C24.9518 48 25.2739 48.2047 26 48V49ZM24 36C25.745 36 26.1702 35.8188 27 35C27.8298 34.1812 29 32.722 29 31C29 29.1938 27.9152 27.8188 27 27C26.0665 26.1992 25.0562 26 23 26C22.0299 26 21.238 25.7652 21 26C20.7559 26.2529 21 27.6032 21 29V36H24Z" fill="url(#paint5_linear_1050_944)"/>
<path d="M26 43V51C26 52.7489 25.7071 53.6914 26 54C26.2929 54.3086 27.6394 54 29 54C31.0196 54 32.0543 53.8896 33 53C33.9457 52.1104 34 50.888 34 49C34 47.112 33.8298 45.9561 33 45C33.1403 44.5703 32.9817 43.4781 33 43C34.0373 43.3933 35.2922 44.4191 36 45C37.2935 46.0772 38 46.5113 38 48C38 50.0575 36.745 51.8563 35 53C33.2367 54.1498 31.1789 55 28 55H19V54C20.6779 53.9516 21.5668 53.4599 22 53C22.4515 52.5219 23 51.6278 23 50V38C24.1044 38.0484 25.2068 38.7458 26 39V42H28C28.0183 42.2421 27.9878 42.7398 28 43C27.8109 43 28.1891 43 28 43H26ZM33 40C33.604 39.1952 34 38.4705 34 37C34 35.1846 32.9152 33.823 32 33C31.0848 32.177 30.0562 32 28 32C27.0299 32 26.2441 31.764 26 32C25.7559 32.236 26 32.5779 26 34V35C25.2922 35.2723 24.0006 36 23 36V35C23 33.3722 22.4515 33.4781 22 33C21.5668 32.5401 20.6779 32.0666 19 32V31H28C30.4528 31 33.4075 31.8502 35 33C36.5864 34.1619 37 35.3722 37 37C37 38.4039 36.0189 39.0923 35 40C34.4631 40.4599 33.8115 41.6551 33 42C32.878 41.5703 33.2441 40.3933 33 40Z" fill="url(#paint6_linear_1050_944)"/>
<path fill-rule="evenodd" clip-rule="evenodd" d="M47 22.9995C47 22.7852 47.2257 22.9995 47 22.9995C47 23.2281 47.2257 23.9995 47 23.9995C46.7884 23.9995 46 23.2281 46 22.9995C46 22.7852 46.7884 22.9995 47 22.9995Z" fill="white"/>
<path fill-rule="evenodd" clip-rule="evenodd" d="M4.99994 22.9995C5.23183 22.9995 5.99994 22.7852 5.99994 22.9995C5.99994 23.2281 5.23183 23.9995 4.99994 23.9995C4.78255 23.9995 4.99994 23.2281 4.99994 22.9995C4.99994 22.7852 4.78255 22.9995 4.99994 22.9995Z" fill="white"/>
<path d="M5.00005 18.0002C5.35431 17.1996 6.43446 16.7291 7.00005 17.0002C6.91303 16.8363 7.19272 17.0885 7.00005 17.0002C7.06841 17.1452 7.01869 17.767 7.00005 18.0002C7.31702 17.5526 8.50905 17.7859 9.00005 18.0002C8.94411 17.7102 9.33567 18.1578 9.00005 18.0002C9.06841 18.3028 9.19272 18.54 9.00005 19.0002L8.00005 20.0002C8.00005 20.038 8.03112 20.0128 8.00005 20.0002L5.00005 19.0002C4.96275 18.9813 4.9814 19.0317 5.00005 19.0002V18.0002ZM6.00005 19.0002H7.00005C7.12435 18.7354 7.03112 18.1641 7.00005 18.0002C6.96897 17.8363 7.19272 18.0885 7.00005 18.0002C6.80737 17.912 6.13678 17.912 6.00005 18.0002C5.8571 18.0696 6.12435 17.6913 6.00005 18.0002V19.0002ZM7.00005 19.0002L8.00005 20.0002V19.0002C8.143 18.6787 9.03734 19.183 9.00005 19.0002C8.9814 18.8237 8.21136 18.0885 8.00005 18.0002C7.78873 17.893 8.16164 17.912 8.00005 18.0002C7.84467 18.1074 7.143 18.6976 7.00005 19.0002ZM7.00005 14.0002C7.24865 13.5904 7.68307 13.0696 8.00005 13.0002C8.33567 12.9309 8.63335 13.767 9.00005 14.0002H10C10.3667 14.2335 10.9255 14.6598 11 15.0002C11.0684 15.3217 11.2611 15.5841 11 16.0002C10.7514 16.3911 10.317 16.9309 10 17.0002C9.66443 17.0885 9.36674 17.2335 9.00005 17.0002L8.00005 16.0002C7.63335 15.767 7.07463 15.3406 7.00005 15.0002C6.93168 14.6787 6.73901 14.3974 7.00005 14.0002ZM9.00005 14.0002C8.73901 13.8426 8.23001 13.9624 8.00005 14.0002C7.78873 14.0506 8.16164 13.7354 8.00005 14.0002C7.82602 14.2524 7.94411 14.7859 8.00005 15.0002C8.03734 15.2335 7.75144 15.8426 8.00005 16.0002H9.00005C9.26108 16.1578 9.77008 17.0569 10 17.0002C10.2114 16.9498 9.83845 16.265 10 16.0002C10.1741 15.748 10.056 15.2145 10 15.0002C9.96275 14.767 10.2487 15.1767 10 15.0002L9.00005 14.0002ZM11 10.0002C10.9814 9.96238 11.0373 9.96238 11 10.0002C11 10.0002 11.0187 9.9813 11 10.0002L10 11.0002L13 14.0002C13 14.0002 13.0187 13.9813 13 14.0002H12C12 14.0002 12.0187 14.0191 12 14.0002L10 12.0002H9.00005C8.9814 12.038 9.01869 12.038 9.00005 12.0002C8.96275 11.9813 8.96275 12.0191 9.00005 12.0002L11 10.0002ZM14 8.00021C13.9814 7.9813 14 8.00021 14 8.00021C14.0187 8.03803 14.0373 7.96238 14 8.00021L13 9.00021L15 11.0002C15 11.0002 15.0373 11.9813 15 12.0002C14.9814 12.038 15.0187 12.038 15 12.0002L13 9.00021L12 10.0002C11.9628 10.038 12.0373 10.038 12 10.0002C12 10.0002 11.9628 9.01912 12 9.00021L14 8.00021ZM17 6.00021C16.9814 5.96238 17.0373 5.9813 17 6.00021C17 6.00021 17.0373 5.9813 17 6.00021L15 7.00021L16 8.00021H17C16.9814 7.9813 17.0373 7.9813 17 8.00021H18C18.0187 8.03803 18.0373 7.9813 18 8.00021L16 9.00021L17 10.0002L18 9.00021C17.9814 8.96238 18.0373 8.9813 18 9.00021C18.0187 9.03803 18.0373 8.9813 18 9.00021L17 10.0002C16.9628 10.0191 16.0187 10.038 16 10.0002L15 7.00021C14.9628 7.01912 14.9814 6.96238 15 7.00021L17 6.00021ZM21 7.00021C21.1057 7.28389 21.0871 7.80478 21 8.00021C20.8944 8.21455 20.2984 7.89304 20 8.00021C19.422 8.19564 19.2114 8.59279 19 8.00021V7.00021C18.913 6.71653 18.8944 6.19564 19 6.00021C19.0871 5.80478 18.7017 5.10738 19 5.00021C19.2797 4.89304 19.826 4.93086 20 5.00021C20.1927 5.08847 20.913 5.75435 21 6.00021C20.9876 6.00021 21 6.03803 21 6.00021C21 6.03803 21.0373 5.9813 21 6.00021C20.8944 5.64088 20.2984 5.1452 20 5.00021C19.6831 4.87413 19.4227 4.85522 19 5.00021C18.5774 5.15781 18.1803 5.69761 18 6.00021C17.8447 6.32172 17.8633 6.59044 18 7.00021L19 8.00021C19.143 8.40997 18.6831 8.86152 19 9.00021C19.2984 9.15781 19.6147 9.1389 20 9.00021C20.23 8.93086 20.8571 8.12629 21 8.00021C20.9503 8.19564 21.1554 7.85522 21 8.00021C20.9503 7.89304 21.0498 8.10738 21 8.00021C21.0187 8.01912 21.9628 8.01912 22 8.00021C22 7.9813 22.0187 8.01282 22 8.00021C21.913 7.8237 22.0746 7.23346 22 7.00021L21 6.00021C21 5.96238 21.0311 6.00021 21 6.00021L20 7.00021C19.9628 7.00021 19.9876 6.96869 20 7.00021C19.969 7.00021 20.0187 7.03803 20 7.00021H21ZM26 8.00021C26 8.03803 26.0311 8.00021 26 8.00021H25C24.9628 8.00021 25.0187 8.01912 25 8.00021V7.00021H23V8.00021C23 8.00021 23.0311 7.9876 23 8.00021H22C21.9503 8.01912 21.9814 8.05064 22 8.00021L23 4.00021C22.969 4.00021 23 3.96238 23 4.00021H24C23.9814 3.9813 24.0373 4.00021 24 4.00021L26 8.00021ZM23 7.00021H24V5.00021L23 7.00021ZM29 4.00021C29.864 4.12629 30.0871 4.35719 30 5.00021C29.9814 5.19564 30.1243 5.88043 30 6.00021C29.8757 6.11999 29.23 5.94978 29 6.00021C29.5097 6.15781 30.0684 6.44545 30 7.00021C29.9503 7.34063 29.2673 7.85522 29 8.00021C28.7514 8.1452 28.5097 8.05064 28 8.00021H27C26.9628 7.9813 26.9876 8.03173 27 8.00021L28 4.00021C27.9503 4.00021 28 3.96238 28 4.00021H29ZM28 4.00021V6.00021H29C28.8385 6.06955 29.2797 6.03803 29 6.00021C29.143 5.91195 28.9814 5.21455 29 5.00021C29.0373 4.78587 29.1243 5.10738 29 5.00021C28.8757 4.89304 29.317 5.03803 29 5.00021L28 4.00021ZM28 6.00021V7.00021V8.00021C28.3543 8.03803 28.8385 7.06955 29 7.00021C28.9628 7.22716 29.1741 6.91195 29 7.00021C29.0187 6.76696 29.1368 6.1452 29 6.00021C28.8757 5.87413 29.3357 6.03803 29 6.00021H28ZM34 5.00021C34 4.96869 34.0373 5.00021 34 5.00021V6.00021C33.9814 6.03803 33.0311 6.01282 33 6.00021L32 5.00021V6.00021L33 7.00021C33.0125 6.96869 33.0373 7.01912 33 7.00021C33 7.03803 33.0498 7.01282 33 7.00021H31V8.00021H33C33.0373 8.01912 33.0125 8.96869 33 9.00021C32.9814 9.03803 33.0311 9.00021 33 9.00021L31 8.00021C30.9628 8.00021 30.9876 8.03173 31 8.00021L32 5.00021C31.9503 5.00021 32 4.96238 32 5.00021H34ZM36 10.0002V11.0002C36 11.0002 36.0311 11.0191 36 11.0002L35 10.0002C34.9628 9.9813 35 10.0317 35 10.0002V8.00021L34 9.00021C33.9814 9.03803 34.0187 9.01282 34 9.00021C33.9628 8.9813 32.9876 9.03173 33 9.00021L35 6.00021C34.9628 5.9876 35.0187 5.96238 35 6.00021H36C36.404 6.21455 36.8757 6.75435 37 7.00021C37.1243 7.26498 37.1554 7.6787 37 8.00021C36.8757 8.25237 36.2114 8.89304 36 9.00021C35.8074 9.08847 36.2487 9.05695 36 9.00021V10.0002ZM35 8.00021C35.2984 8.15781 35.826 8.03803 36 8.00021C35.8757 8.23346 36.1741 7.96238 36 8.00021C36.1057 7.78587 37.0871 7.16412 37 7.00021C36.9317 6.85522 36.2797 7.16412 36 7.00021L35 6.00021V8.00021ZM39 13.0002C39 13.0002 39.0311 13.0191 39 13.0002L38 12.0002C37.9814 12.038 38 12.0002 38 12.0002L39 10.0002H38L37 11.0002C37 11.0002 37.0311 11.0191 37 11.0002C36.9628 10.9813 36.9628 11.038 37 11.0002L39 8.00021C38.9628 7.9813 39.0187 7.96238 39 8.00021C39.0187 7.96238 39.0373 8.03803 39 8.00021L38 10.0002L41 9.00021C40.9814 8.9813 41.0373 9.00021 41 9.00021V10.0002C41 9.9813 41 10.0002 41 10.0002C40.9814 10.0191 41.0311 10.0002 41 10.0002H39V13.0002ZM40 14.0002C40.1927 14.2145 40.7701 13.9813 41 14.0002C41.2114 14.0191 41.7701 14.1956 42 14.0002L43 12.0002C43.0373 11.9624 43.9814 11.9624 44 12.0002V13.0002C44.0187 12.9624 44.0187 13.038 44 13.0002L42 14.0002C41.6831 14.2839 41.3357 15.038 41 15.0002C40.6458 14.9624 40.2797 14.3217 40 14.0002C39.7204 13.6598 39.9628 13.3406 40 13.0002C40.0187 12.6598 39.6644 12.2839 40 12.0002L42 11.0002C41.9814 10.9813 42.0187 10.9624 42 11.0002C42.0187 10.9624 42.0187 11.038 42 11.0002L40 13.0002C39.7701 13.1956 40.0125 12.7859 40 13.0002C39.9814 13.2335 39.8074 13.767 40 14.0002ZM46 16.0002C46.0187 16.038 46.0373 15.9813 46 16.0002C45.9814 16.038 46.0187 16.038 46 16.0002L45 15.0002L42 17.0002C42 17.0002 42.0187 17.038 42 17.0002C41.9628 17.0191 41.9814 16.9624 42 17.0002L45 15.0002L44 14.0002C43.9628 14.0191 43.9814 13.9624 44 14.0002C44.0373 13.9813 44.9814 13.9624 45 14.0002L46 16.0002ZM44 21.0002C44 21.0002 44.0125 21.038 44 21.0002C44 21.0002 43.9628 20.0191 44 20.0002H45L44 18.0002H43C42.9628 18.0002 43.0187 18.0191 43 18.0002C42.9503 18.0002 42.9814 17.9624 43 18.0002H47C46.9814 17.9813 47.0373 18.0002 47 18.0002C47.0187 17.9813 47.0187 18.038 47 18.0002L44 21.0002ZM44 18.0002L45 20.0002L46 18.0002H44Z" fill="url(#paint7_linear_1050_944)"/>
<defs>
<linearGradient id="paint0_linear_1050_944" x1="37.199" y1="51.1141" x2="57.5093" y2="60.9404" gradientUnits="userSpaceOnUse">
<stop stop-color="#A8A9A9"/>
<stop offset="0.31" stop-color="#E7E7E7"/>
<stop offset="0.54" stop-color="#949494"/>
<stop offset="0.76" stop-color="#C9C9C9"/>
<stop offset="1" stop-color="#ABACAC"/>
</linearGradient>
<linearGradient id="paint1_linear_1050_944" x1="9.97176" y1="37.9967" x2="94.4604" y2="81.0506" gradientUnits="userSpaceOnUse">
<stop stop-color="#A8A9A9"/>
<stop offset="0.31" stop-color="#E7E7E7"/>
<stop offset="0.54" stop-color="#949494"/>
<stop offset="0.76" stop-color="#C9C9C9"/>
<stop offset="1" stop-color="#ABACAC"/>
</linearGradient>
<linearGradient id="paint2_linear_1050_944" x1="36.7881" y1="36.9701" x2="56.0861" y2="86.9111" gradientUnits="userSpaceOnUse">
<stop stop-color="#A8A9A9"/>
<stop offset="0.31" stop-color="#E7E7E7"/>
<stop offset="0.54" stop-color="#949494"/>
<stop offset="0.76" stop-color="#C9C9C9"/>
<stop offset="1" stop-color="#ABACAC"/>
</linearGradient>
<linearGradient id="paint3_linear_1050_944" x1="24.9061" y1="47.0779" x2="62.8927" y2="62.8856" gradientUnits="userSpaceOnUse">
<stop stop-color="#A8A9A9"/>
<stop offset="0.31" stop-color="#E7E7E7"/>
<stop offset="0.54" stop-color="#949494"/>
<stop offset="0.76" stop-color="#C9C9C9"/>
<stop offset="1" stop-color="#ABACAC"/>
</linearGradient>
<linearGradient id="paint4_linear_1050_944" x1="22.25" y1="41.6184" x2="68.0822" y2="82.6244" gradientUnits="userSpaceOnUse">
<stop stop-color="#A8A9A9"/>
<stop offset="0.31" stop-color="#E7E7E7"/>
<stop offset="0.54" stop-color="#949494"/>
<stop offset="0.76" stop-color="#C9C9C9"/>
<stop offset="1" stop-color="#ABACAC"/>
</linearGradient>
<linearGradient id="paint5_linear_1050_944" x1="39.5145" y1="47.9563" x2="43.1775" y2="70.3266" gradientUnits="userSpaceOnUse">
<stop stop-color="white"/>
<stop offset="1" stop-color="#BBBBBB"/>
</linearGradient>
<linearGradient id="paint6_linear_1050_944" x1="44.849" y1="54.2338" x2="48.4966" y2="76.5587" gradientUnits="userSpaceOnUse">
<stop stop-color="white"/>
<stop offset="1" stop-color="#BBBBBB"/>
</linearGradient>
<linearGradient id="paint7_linear_1050_944" x1="24.8247" y1="27.5991" x2="63.9669" y2="25.8183" gradientUnits="userSpaceOnUse">
<stop stop-color="#A8A9A9"/>
<stop offset="0.31" stop-color="#E7E7E7"/>
<stop offset="0.54" stop-color="#949494"/>
<stop offset="0.76" stop-color="#C9C9C9"/>
<stop offset="1" stop-color="#ABACAC"/>
</linearGradient>
</defs>
</svg>
