<svg width="125" height="195" viewBox="0 0 125 195" fill="none" xmlns="http://www.w3.org/2000/svg">
<path d="M50.5971 90.0081V109.707C50.5971 114.023 50.9406 116.561 51.6574 117.323C52.0756 117.741 52.8373 118.04 54.0619 118.249V120.37H52.1652V118.249C50.9406 118.04 50.1341 117.741 49.7608 117.323C49.0439 116.561 48.7004 114.023 48.7004 109.707V90.0081H50.5971ZM55.4508 61.125H57.3922C63.351 61.125 68.2943 62.5587 72.1922 65.3962C76.0453 68.2338 77.9867 71.6089 78.0315 75.5367C80.8691 76.2535 83.4079 77.4035 85.5585 79.0014C89.4862 81.839 91.4277 85.2589 91.4277 89.3211C91.4277 92.7411 90.1583 95.6234 87.6642 97.8188C86.35 98.9538 84.7072 99.9693 82.6761 100.821C82.6313 100.567 82.5567 100.313 82.467 100.059C83.7365 99.3869 84.8416 98.6252 85.7227 97.8188C88.2616 95.6234 89.4862 92.7411 89.4862 89.3211C89.4862 85.2589 87.5896 81.839 83.6469 79.0014C81.4963 77.3885 78.9575 76.2535 76.1199 75.5367C76.0751 71.6089 74.1337 68.2188 70.2806 65.3962C66.3976 62.5587 61.4394 61.125 55.4358 61.125H55.4508ZM77.6134 79.0463C77.016 81.0325 75.9258 82.7649 74.2681 84.2434C71.774 86.4388 67.921 88.0965 62.8134 89.1867C68.4735 90.247 72.924 92.0541 76.0453 94.7273C79.2114 97.3857 80.7795 100.522 80.7795 104.196C80.7795 109.273 78.6588 113.246 74.3577 116.069C72.2818 117.428 69.7878 118.473 66.9204 119.19V118.637C68.9962 117.965 70.8481 117.114 72.461 116.054C76.7322 113.216 78.8828 109.244 78.8828 104.181C78.8828 100.507 77.3147 97.3707 74.1486 94.7124C70.9825 92.0541 66.5769 90.2321 60.9167 89.1718C66.0392 88.0666 69.8773 86.4238 72.3714 84.2285C74.2681 82.5409 75.4628 80.465 75.9258 78.0606C76.5232 78.3593 77.1056 78.6878 77.6134 79.0313V79.0463ZM63.9484 103.613V123.267C63.9484 127.628 64.3218 130.152 65.0536 130.913C65.6808 131.585 67.3833 131.974 70.176 132.048H69.2949C65.9197 132.048 63.8887 131.675 63.127 130.913C62.455 130.152 62.0667 127.613 62.0667 123.267V103.613H63.9633H63.9484ZM82.9748 105.48C83.0196 105.226 83.0644 104.972 83.0644 104.674C85.5585 105.644 87.6792 106.869 89.4414 108.348C92.5627 110.976 94.1756 114.142 94.1756 117.816C94.1756 122.894 92.0251 126.821 87.7538 129.659C83.4378 132.526 77.3894 133.93 69.6534 133.93H67.7567C75.4927 133.93 81.5411 132.541 85.8123 129.659C90.1284 126.821 92.2789 122.894 92.2789 117.816C92.2789 114.142 90.666 110.961 87.4999 108.348C86.2305 107.242 84.7072 106.272 82.9748 105.48ZM57.0189 92.8755V92.756C59.6772 92.8456 62.007 93.219 63.9484 93.891V101.836H62.0517V93.891C60.5732 93.3833 58.8857 93.0398 57.0189 92.8755ZM68.145 101.836H70.0864C70.1312 102.389 70.176 103.016 70.176 103.658C69.7131 103.613 69.2501 103.613 68.7423 103.613H68.2794C68.2794 102.986 68.2346 102.389 68.1599 101.836H68.145ZM68.3092 76.6418C66.4872 76.6866 65.3523 76.9853 64.8445 77.5229C64.2471 78.1203 63.9633 79.1657 63.9633 82.6454V85.1395C62.2757 85.8115 60.1999 86.1102 57.7507 86.1102H57.0338C58.9305 86.0206 60.633 85.6921 62.0667 85.1395V82.6454C62.0667 79.1807 62.3654 78.1203 62.9478 77.5229C63.5452 76.8957 65.0237 76.597 67.3833 76.597H68.3092V76.6418ZM50.5971 77.1496V88.2309H48.7004V76.821C49.3725 76.9106 50.0146 77.0301 50.5971 77.1645V77.1496ZM55.0326 63.0366C53.1658 63.0814 51.986 63.3801 51.4782 63.9177C50.8808 64.5151 50.5971 66.576 50.5971 70.0856V74.7302H48.7004V70.0856C48.7004 66.576 48.9543 64.5002 49.5517 63.9177C50.149 63.3353 51.6723 62.9918 54.032 62.9918C54.3755 62.9918 54.7041 63.0366 55.0476 63.0366H55.0326Z" fill="#46332C"/>
<path d="M62.858 0.804688C79.9429 0.804688 95.4896 7.77904 106.735 19.0694C118.026 30.315 125 45.8766 125 62.9466V132.526C125 149.611 118.026 165.128 106.735 176.403C95.4448 187.679 79.928 194.668 62.858 194.668C45.788 194.668 30.2264 187.649 18.9808 176.403C7.73521 165.158 0.716064 149.596 0.716064 132.526V62.9466C0.716064 45.8617 7.69041 30.315 18.9808 19.0694C30.2264 7.77904 45.788 0.804688 62.858 0.804688ZM105.72 20.07C94.728 9.07833 79.5546 2.22345 62.858 2.22345C46.1614 2.22345 30.9881 9.07833 19.9964 20.07C9.00467 31.0617 2.14977 46.2351 2.14977 62.9317V132.511C2.14977 149.163 9.00467 164.351 19.9964 175.373C30.9881 186.364 46.1614 193.174 62.858 193.174C79.5546 193.174 94.728 186.364 105.72 175.373C116.711 164.336 123.566 149.163 123.566 132.511V62.9317C123.566 46.2351 116.711 31.0617 105.72 20.07Z" fill="#46332C"/>
<path d="M62.858 4.26953C79.0468 4.26953 93.7572 10.9004 104.465 21.6083C115.173 32.3163 121.759 46.9669 121.759 63.1707V132.287C121.759 148.521 115.128 163.231 104.465 173.894C93.802 184.557 79.0618 191.188 62.858 191.188C46.6542 191.188 31.9588 184.587 21.2508 173.894C10.5429 163.201 3.95679 148.536 3.95679 132.287V63.1707C3.95679 46.9818 10.5877 32.2715 21.2508 21.6083C31.914 10.9452 46.6542 4.26953 62.858 4.26953ZM103.405 22.6089C93.0105 12.2146 78.6735 5.74803 62.858 5.74803C47.0425 5.74803 32.7204 12.2146 22.3111 22.6089C11.872 33.0033 5.45022 47.3851 5.45022 63.1558V132.272C5.45022 148.088 11.872 162.454 22.3111 172.864C32.7055 183.258 47.0425 189.725 62.858 189.725C78.6735 189.725 92.9955 183.258 103.405 172.864C113.844 162.469 120.266 148.088 120.266 132.272V63.1558C120.266 47.3851 113.844 33.0182 103.405 22.6089Z" fill="#46332C"/>
<path d="M62.8579 23.1621C74.1483 23.1621 84.3784 27.8067 91.8157 35.2142C99.253 42.6515 103.868 52.9263 103.868 64.2167V131.272C103.868 142.562 99.253 152.837 91.8157 160.23C84.3784 167.667 74.1483 172.282 62.8579 172.282C51.5675 172.282 41.3375 167.667 33.9002 160.23C26.4629 152.837 21.8481 142.562 21.8481 131.272V64.2167C21.8481 52.9263 26.4629 42.6515 33.9002 35.2142C41.3375 27.8216 51.5675 23.1621 62.8579 23.1621ZM90.8001 36.2745C83.6167 29.0911 73.7152 24.6555 62.8579 24.6555C52.0006 24.6555 42.0992 29.0911 34.9157 36.2745C27.7323 43.4131 23.2968 53.3146 23.2968 64.2167V131.272C23.2968 142.144 27.7323 152.031 34.9157 159.214C42.0992 166.398 52.0006 170.833 62.8579 170.833C73.7152 170.833 83.6167 166.398 90.8001 159.214C97.9836 152.031 102.419 142.129 102.419 131.272V64.2167C102.419 53.3146 97.9836 43.4131 90.8001 36.2745Z" fill="#46332C"/>
<path d="M18.4284 70.6385C18.4284 70.7579 18.3836 70.8027 18.3089 70.8027H9.6022C9.5126 70.8027 9.48273 70.7579 9.48273 70.6385V69.7573C9.48273 69.6677 9.52753 69.6379 9.6022 69.6379H18.3089C18.3986 69.6379 18.4284 69.6827 18.4284 69.7573V70.6385ZM18.4284 80.5399C18.4284 80.6296 18.3836 80.6594 18.2641 80.6594H17.5025C17.4129 80.6594 17.383 80.6146 17.383 80.5399V78.0907H9.6022C9.5126 78.0907 9.43792 78.0459 9.43792 77.9712V77.0453C9.43792 76.9557 9.52753 76.9258 9.6022 76.9258H17.383V74.4766C17.383 74.387 17.4278 74.3571 17.5025 74.3571H18.2641C18.3836 74.3571 18.4284 74.4019 18.4284 74.4766V80.5698V80.5399ZM9.54245 89.8739C9.45285 89.8739 9.42298 89.8291 9.42298 89.7545V88.7837C9.42298 88.6941 9.46778 88.6642 9.54245 88.6194L11.5287 87.9474V84.0943L9.54245 83.4223C9.45285 83.3775 9.42298 83.3327 9.42298 83.258V82.3321C9.42298 82.2425 9.51258 82.2126 9.58725 82.2425L18.294 85.2443C18.3836 85.2891 18.4135 85.3339 18.4135 85.4086V86.6332C18.4135 86.7228 18.3687 86.7527 18.294 86.7975L9.58725 89.8889H9.54245V89.8739ZM12.5443 84.3333V87.6338L17.3681 85.991L12.5443 84.3482V84.3333ZM18.4284 93.9361C18.4284 94.0257 18.3836 94.0556 18.2641 94.0556H10.4833V97.8638C10.4833 97.9534 10.4385 97.9833 10.3638 97.9833H9.6022C9.48273 97.9833 9.43792 97.9385 9.43792 97.8638V93.04C9.43792 92.9504 9.48273 92.9205 9.6022 92.9205H18.2641C18.3836 92.9205 18.4284 92.9654 18.4284 93.04V93.9212V93.9361ZM18.4284 102.344C18.4284 102.434 18.3388 102.464 18.2641 102.464H9.6022C9.48273 102.464 9.43792 102.419 9.43792 102.299V101.418C9.43792 101.329 9.48273 101.299 9.6022 101.299H18.2641C18.3538 101.299 18.4284 101.344 18.4284 101.418V102.344ZM9.54245 113.172C9.45285 113.172 9.42298 113.127 9.42298 113.052V112.081C9.42298 111.992 9.46778 111.962 9.54245 111.917L11.5287 111.245V107.392L9.54245 106.72C9.45285 106.675 9.42298 106.63 9.42298 106.556V105.63C9.42298 105.54 9.46778 105.51 9.58725 105.54L18.294 108.542C18.3836 108.587 18.3836 108.632 18.3836 108.706V109.931C18.3836 110.02 18.3836 110.05 18.294 110.095L9.58725 113.186H9.54245V113.172ZM12.5443 107.631V110.931L17.3681 109.289L12.5443 107.646V107.631ZM9.42298 121.326C9.42298 121.236 9.46777 121.206 9.51258 121.161L17.159 117.353H9.54245C9.45285 117.353 9.42298 117.308 9.42298 117.234V116.353C9.42298 116.263 9.46778 116.233 9.54245 116.233H18.2492C18.3388 116.233 18.3687 116.278 18.3687 116.353V117.876C18.3687 117.965 18.3687 117.995 18.279 118.04L10.6625 121.804H18.2342C18.3239 121.804 18.3537 121.848 18.3537 121.923V122.804C18.3537 122.894 18.3089 122.924 18.2342 122.924H9.52753C9.43792 122.924 9.40805 122.879 9.40805 122.804V121.326H9.42298ZM9.37817 130.167C9.37817 130.077 9.42298 130.003 9.49765 130.003L18.2044 129.794C18.294 129.794 18.3239 129.838 18.3239 129.913L18.3687 130.794C18.3687 130.884 18.3239 130.914 18.2044 130.914L14.5306 131.033L14.65 135.424L18.3239 135.304C18.4135 135.304 18.4433 135.349 18.4882 135.424V136.305C18.4882 136.424 18.4433 136.469 18.3687 136.469L9.66193 136.678C9.57232 136.678 9.54245 136.633 9.54245 136.559L9.49765 135.678C9.49765 135.588 9.54246 135.558 9.66193 135.558L13.6345 135.439L13.515 131.048L9.54245 131.167C9.45285 131.167 9.37817 131.123 9.37817 131.048V130.167ZM11.6183 147.252C11.5287 147.252 11.4989 147.207 11.4989 147.132L11.245 146.206C11.245 146.117 11.2898 146.087 11.3346 146.042L13.1118 144.937L12.2605 141.129L10.1398 140.964C10.0502 140.964 10.0204 140.875 10.0204 140.845L9.81128 139.919C9.76648 139.829 9.81126 139.8 9.93074 139.8L19.1005 140.77C19.1901 140.77 19.2199 140.86 19.2199 140.89L19.5186 142.07C19.5186 142.159 19.5186 142.234 19.429 142.279L11.6482 147.222L11.6034 147.267L11.6183 147.252ZM13.2611 141.159L14.0228 144.369L18.3388 141.711L13.2611 141.159ZM14.4858 154.853C14.4409 154.764 14.4409 154.734 14.4858 154.689L19.8173 148.058L12.9326 151.18C12.9326 151.18 12.8131 151.224 12.7683 151.135L12.4248 150.328C12.38 150.239 12.38 150.164 12.4696 150.119L20.3699 146.52C20.4595 146.475 20.5342 146.52 20.579 146.565L21.2062 147.954C21.2062 148.043 21.2062 148.118 21.1614 148.163L15.785 154.764L22.6698 151.598C22.7594 151.553 22.8341 151.598 22.8789 151.687L23.2223 152.494C23.2671 152.583 23.2671 152.613 23.1775 152.658L15.2773 156.257C15.1877 156.302 15.113 156.302 15.0682 156.212L14.4708 154.853H14.4858ZM25.8657 156.84C26.6722 157.975 27.0455 159.035 26.9261 159.961C26.8066 160.932 26.2092 161.783 25.1041 162.545L24.5515 162.963C23.3717 163.814 22.3114 164.187 21.2958 164.023C20.3251 163.904 19.3992 163.261 18.5927 162.126L17.2038 160.185C17.1142 160.095 17.159 160.021 17.2038 159.976L24.2677 154.898C24.3574 154.809 24.432 154.853 24.4769 154.898L25.8657 156.84ZM24.5067 161.574C25.3132 160.976 25.7313 160.349 25.8209 159.677C25.9105 159.005 25.6566 158.244 25.0145 157.392L24.2528 156.332L18.5927 160.439L19.3543 161.454C19.9517 162.336 20.6238 162.813 21.3854 162.933C22.1023 163.023 22.9087 162.724 23.8346 162.082L24.5067 161.574ZM29.4948 170.116C29.4948 170.116 29.6143 170.072 29.6591 170.116L30.2863 170.714C30.2863 170.714 30.3311 170.803 30.3311 170.833C30.3311 170.863 30.3311 170.923 30.2863 170.953C30.2415 171.042 30.1669 171.117 30.0324 171.207C29.689 171.625 29.226 171.834 28.763 171.968C28.3 172.058 27.7922 172.013 27.2397 171.849C26.7319 171.64 26.2242 171.296 25.7612 170.878C24.9995 170.116 24.5814 169.355 24.5366 168.548C24.4918 167.697 24.8353 166.935 25.5521 166.174L27.4936 164.098C28.2104 163.381 28.9721 162.993 29.7785 162.993C30.6298 162.993 31.4213 163.366 32.183 164.128C32.8998 164.8 33.318 165.517 33.4524 166.278C33.542 167.085 33.3329 167.757 32.7356 168.399L32.5265 168.608C32.407 168.698 32.3174 168.698 32.2726 168.608L31.6453 168.011L31.6005 167.921C31.6005 167.876 31.6005 167.831 31.6453 167.831C32.1083 167.368 32.3174 166.861 32.3174 166.353C32.2726 165.845 32.0187 165.337 31.4661 164.83C30.9584 164.322 30.4058 164.113 29.898 164.113C29.3454 164.113 28.8377 164.367 28.3299 164.874L26.3436 166.995C25.8807 167.503 25.6268 168.011 25.6716 168.563C25.6716 169.071 25.9703 169.624 26.4781 170.131C27.0306 170.594 27.5384 170.848 28.0461 170.848C28.5539 170.848 29.0169 170.594 29.4798 170.086L29.4948 170.116ZM36.947 178.913V179.002C36.947 179.002 36.8574 179.047 36.7828 179.002L35.9315 178.405C35.8419 178.36 35.812 178.315 35.8419 178.241L36.0062 173.925L34.5277 172.954L32.4966 176.045C32.4518 176.135 32.407 176.135 32.3323 176.09L31.5707 175.582C31.4811 175.538 31.4811 175.463 31.5259 175.418L36.3049 168.145C36.3497 168.055 36.4243 168.055 36.514 168.1L38.7093 169.534C39.5904 170.131 40.1878 170.759 40.3969 171.401C40.6059 172.043 40.4865 172.67 40.0235 173.387C39.68 173.94 39.2619 174.268 38.7541 174.492C38.2463 174.656 37.6937 174.656 37.1412 174.492L36.9321 178.928L36.947 178.913ZM36.3049 172.984C36.9321 173.402 37.4847 173.581 37.9178 173.581C38.336 173.536 38.7242 173.282 39.0229 172.775C39.3664 172.312 39.4411 171.894 39.3216 171.505C39.1573 171.132 38.769 170.744 38.1418 170.325L36.8276 169.474L35.0504 172.177L36.3198 172.984H36.3049ZM46.2362 183.005C46.2362 183.094 46.1466 183.094 46.1167 183.05L45.1908 182.706C45.1012 182.661 45.1012 182.616 45.1012 182.542L45.1908 180.466L41.5916 179.032L40.2326 180.645C40.2326 180.645 40.1131 180.735 40.0235 180.69L39.1723 180.346C39.0827 180.302 39.0827 180.257 39.1275 180.182L45.1311 173.163C45.2207 173.118 45.2506 173.118 45.3402 173.118L46.4752 173.581C46.5648 173.626 46.5648 173.671 46.5648 173.745L46.2213 182.96V183.005H46.2362ZM42.2189 178.196L45.2655 179.42L45.5194 174.343L42.2189 178.196ZM56.0481 176.329C56.1377 176.329 56.1676 176.419 56.1377 176.493L55.9734 177.255C55.9734 177.345 55.8838 177.374 55.8091 177.345L52.0457 176.493L51.4184 179.241L54.6742 180.003C54.7638 180.048 54.7936 180.093 54.7638 180.167L54.5995 180.884C54.5995 180.974 54.5547 181.004 54.48 181.004L51.2243 180.242L50.3432 184.05C50.3432 184.14 50.2536 184.17 50.1789 184.17L49.3276 183.961C49.238 183.916 49.2082 183.871 49.2082 183.796L51.1496 175.299C51.1944 175.209 51.2393 175.209 51.3139 175.209L56.0929 176.314L56.0481 176.329ZM63.575 176.747C63.6646 176.747 63.6945 176.837 63.6945 176.911V177.673C63.6945 177.763 63.6049 177.793 63.5302 177.793L61.081 177.748L60.8719 185.529C60.8719 185.618 60.8271 185.648 60.7524 185.648L59.8713 185.603C59.7817 185.603 59.707 185.558 59.7518 185.484L59.9161 177.703L57.4669 177.658C57.3773 177.613 57.3474 177.569 57.3474 177.494V176.732C57.3922 176.643 57.437 176.613 57.5117 176.613L63.6049 176.732L63.575 176.747ZM70.7585 176.075C70.8481 176.075 70.9227 176.075 70.9227 176.195L71.0123 176.956C71.0571 177.046 71.0123 177.076 70.9227 177.121L67.0697 177.628L67.443 180.421L70.9526 179.958C71.0422 179.958 71.0721 180.003 71.0721 180.078L71.1916 180.794C71.1916 180.914 71.1468 180.959 71.0721 180.959L67.5625 181.422L67.9807 184.379L71.7889 183.871C71.8786 183.871 71.9084 183.916 71.9532 183.99L72.0428 184.797C72.0428 184.886 71.998 184.916 71.9234 184.916L67.0995 185.544C67.0099 185.588 66.9801 185.544 66.9353 185.454L65.8002 176.837C65.8002 176.717 65.8451 176.673 65.9197 176.673L70.7435 176.045L70.7585 176.075ZM75.6271 174.851C76.9861 174.432 78.0763 174.432 78.9276 174.806C79.8087 175.224 80.4509 176.03 80.869 177.3L81.0781 177.927C81.5411 179.316 81.5411 180.466 81.1229 181.347C80.7048 182.273 79.8087 182.915 78.4646 183.378L76.1797 184.14C76.09 184.14 76.0602 184.14 76.0154 184.05L73.3122 175.762C73.2674 175.672 73.3122 175.642 73.4018 175.597L75.642 174.836L75.6271 174.851ZM79.7191 177.598C79.4204 176.673 78.9575 176.03 78.3302 175.732C77.703 175.478 76.8965 175.478 75.881 175.821L74.6563 176.239L76.8517 182.87L78.0763 182.452C79.0918 182.109 79.7639 181.646 80.0626 180.974C80.3613 180.302 80.3613 179.45 79.973 178.39L79.7191 177.584V177.598ZM86.6636 169.862C86.7532 169.773 86.8279 169.818 86.8727 169.862L91.4426 176.165L94.4892 173.969C94.5788 173.925 94.6087 173.925 94.6983 174.014L95.1164 174.641C95.206 174.731 95.1612 174.761 95.1164 174.806L91.2335 177.643C91.1439 177.688 91.0692 177.688 91.0244 177.598L85.9467 170.534C85.8571 170.49 85.9019 170.415 85.9467 170.37L86.6636 169.862ZM99.3428 170.027C99.8506 169.519 100.105 169.011 100.149 168.503C100.149 167.951 99.8954 167.443 99.4324 166.935L95.4151 162.754C95.3255 162.709 95.3255 162.634 95.4151 162.589L96.0424 161.962C96.0424 161.962 96.1619 161.917 96.2515 161.962L100.224 166.144C100.941 166.861 101.24 167.622 101.24 168.474C101.195 169.28 100.821 170.042 100.06 170.759C99.2981 171.475 98.5364 171.864 97.7299 171.864C96.9235 171.864 96.1618 171.49 95.445 170.729L91.4276 166.592C91.3828 166.502 91.3828 166.472 91.4276 166.383L92.0997 165.785C92.1445 165.696 92.2192 165.696 92.264 165.785L96.2813 169.967C96.7891 170.475 97.2968 170.729 97.8046 170.729C98.3124 170.729 98.865 170.52 99.3279 170.057L99.3428 170.027ZM101.195 155.018C101.195 155.018 101.24 154.928 101.284 154.928L101.374 155.018L103.196 159.707L108.528 159.916C108.528 159.916 108.572 159.916 108.617 159.961C108.662 159.961 108.662 160.006 108.617 160.08L107.99 160.962C107.99 160.962 107.87 161.051 107.826 161.051L103.51 160.887L105.078 164.859C105.122 164.949 105.122 164.979 105.078 165.024L104.45 165.905L104.361 165.994C104.361 165.994 104.271 165.95 104.271 165.905L102.33 160.917L97.3416 160.708H97.252C97.252 160.708 97.2072 160.618 97.252 160.543L97.8793 159.662C97.8793 159.662 97.9689 159.617 97.9988 159.573L102.061 159.737L100.582 156.018C100.538 155.929 100.538 155.899 100.582 155.854L101.21 155.003L101.195 155.018ZM110.708 153.972C111.007 153.345 111.051 152.792 110.827 152.285C110.663 151.777 110.23 151.404 109.603 151.105L104.316 148.73C104.226 148.686 104.226 148.611 104.271 148.521L104.615 147.715C104.659 147.625 104.734 147.625 104.824 147.625L110.066 150.03C110.992 150.448 111.589 151.045 111.843 151.807C112.142 152.568 112.052 153.45 111.634 154.39C111.216 155.331 110.618 155.959 109.857 156.257C109.095 156.556 108.244 156.511 107.318 156.048L102.076 153.674C101.986 153.629 101.956 153.584 101.986 153.509L102.36 152.703C102.404 152.613 102.449 152.583 102.524 152.613L107.811 155.018C108.438 155.316 109.035 155.361 109.498 155.182C110.006 154.973 110.379 154.585 110.678 153.957L110.708 153.972ZM115.487 141.024H115.577C115.666 141.024 115.666 141.069 115.666 141.144L115.412 142.204C115.412 142.204 115.367 142.294 115.293 142.323L111.156 143.638L110.783 145.37L114.382 146.221C114.471 146.221 114.501 146.266 114.471 146.341L114.262 147.222C114.262 147.312 114.217 147.341 114.098 147.312L105.645 145.37C105.556 145.37 105.526 145.28 105.556 145.206L106.153 142.622C106.362 141.562 106.75 140.845 107.288 140.427C107.796 140.009 108.468 139.874 109.274 140.083C109.901 140.203 110.379 140.501 110.753 140.89C111.096 141.308 111.305 141.816 111.305 142.413L115.532 141.024H115.487ZM110.17 143.742C110.335 142.981 110.335 142.383 110.17 142.01C110.006 141.636 109.618 141.383 109.035 141.248C108.483 141.129 108.065 141.159 107.766 141.412C107.467 141.666 107.213 142.174 107.049 142.891L106.706 144.459L109.827 145.176L110.17 143.742ZM107.542 131.182C107.542 131.182 107.542 131.093 107.587 131.093C107.631 131.048 107.676 131.048 107.706 131.093L113.157 134.438L116.114 134.647C116.204 134.692 116.234 134.737 116.234 134.811L116.144 135.693C116.144 135.782 116.099 135.812 116.025 135.812L113.068 135.603L107.154 138.097H107.064C107.064 138.097 106.974 138.052 106.974 137.978L107.064 136.917C107.064 136.828 107.109 136.798 107.183 136.798L111.873 134.931L107.512 132.347C107.422 132.303 107.422 132.258 107.422 132.183L107.512 131.167L107.542 131.182ZM117.309 126.911C117.219 126.911 117.145 126.822 117.1 126.657C117.01 126.314 116.801 126.03 116.473 125.851C116.174 125.642 115.711 125.552 115.158 125.552H107.467C107.378 125.552 107.348 125.507 107.348 125.433V124.552C107.348 124.432 107.392 124.387 107.467 124.387H115.114C115.995 124.387 116.726 124.552 117.234 124.895C117.742 125.239 118.085 125.702 118.205 126.374C118.205 126.418 118.25 126.493 118.25 126.538C118.25 126.627 118.205 126.657 118.16 126.702L117.309 126.911ZM107.333 115.158C107.333 115.068 107.378 115.038 107.452 115.038H108.214C108.303 115.038 108.378 115.083 108.378 115.158V119.011H111.216V115.501C111.216 115.412 111.26 115.382 111.335 115.382H112.097C112.186 115.382 112.216 115.427 112.216 115.501V119.011H115.218V115.158C115.218 115.068 115.263 115.038 115.338 115.038H116.144C116.234 115.038 116.264 115.083 116.264 115.158V120.056C116.264 120.146 116.219 120.176 116.144 120.176H107.437C107.348 120.176 107.318 120.131 107.318 120.056V115.158H107.333ZM107.333 101C107.333 101 107.333 100.91 107.378 100.881H107.467L116.174 103.285C116.264 103.285 116.293 103.375 116.293 103.449V104.719C116.293 104.808 116.249 104.838 116.174 104.883L111.141 106.317L116.174 107.84C116.264 107.84 116.293 107.93 116.293 107.959V109.229C116.293 109.318 116.249 109.348 116.174 109.348L107.467 111.887H107.422C107.333 111.887 107.333 111.842 107.333 111.768V110.842C107.333 110.842 107.333 110.722 107.422 110.722L115.039 108.602L109.334 106.869L107.602 107.377H107.557C107.557 107.377 107.467 107.332 107.467 107.258V106.332C107.467 106.242 107.512 106.167 107.587 106.167L115.024 104.136L107.407 102.105C107.318 102.06 107.318 102.016 107.318 101.941V101.015L107.333 101ZM107.333 92.5323C107.333 92.4426 107.378 92.4128 107.452 92.4128H108.214C108.303 92.4128 108.378 92.4576 108.378 92.5323V96.3853H111.216V92.8757C111.216 92.7563 111.26 92.7115 111.335 92.7115H112.097C112.186 92.7115 112.216 92.7563 112.216 92.8757V96.3853H115.218V92.5323C115.218 92.4426 115.263 92.4128 115.338 92.4128H116.144C116.234 92.4128 116.264 92.4576 116.264 92.5323V97.4009C116.264 97.4905 116.219 97.5203 116.144 97.5203H107.437C107.348 97.5203 107.318 97.4755 107.318 97.4009V92.5323H107.333ZM107.333 87.3351C107.333 87.2455 107.378 87.2156 107.452 87.2156H115.233V83.4073C115.233 83.3177 115.278 83.2879 115.352 83.2879H116.159C116.249 83.2879 116.278 83.3327 116.278 83.4073V88.2312C116.278 88.3208 116.234 88.3506 116.159 88.3506H107.452C107.363 88.3506 107.333 88.3058 107.333 88.2312V87.35V87.3351ZM116.129 73.5208C116.129 73.5208 116.174 73.476 116.219 73.476C116.264 73.476 116.308 73.5208 116.308 73.5955V74.6558C116.308 74.7454 116.264 74.7753 116.219 74.8201L112.455 77.0602V78.7926H116.174C116.264 78.7926 116.293 78.8822 116.293 78.9569V79.838C116.293 79.9276 116.249 79.9575 116.174 79.9575H107.467C107.378 79.9575 107.348 79.9127 107.348 79.838V77.1797C107.348 76.1194 107.512 75.3129 107.945 74.7753C108.363 74.2675 109.005 73.9688 109.812 73.9688C110.484 73.9688 110.992 74.1331 111.455 74.4766C111.873 74.7753 112.171 75.2382 112.336 75.7908L116.144 73.5059L116.129 73.5208ZM111.514 77.3141C111.514 76.5525 111.395 75.9999 111.141 75.6713C110.887 75.3428 110.469 75.1636 109.872 75.1636C109.319 75.1636 108.901 75.3279 108.647 75.6265C108.438 75.97 108.303 76.4778 108.303 77.2395V78.8076H111.514V77.3291V77.3141ZM107.333 64.2615C107.333 64.2615 107.333 64.1719 107.378 64.1719C107.378 64.1719 107.417 64.1719 107.497 64.1719L113.202 67.0841H116.159C116.249 67.0841 116.278 67.1289 116.278 67.2484V68.1295C116.278 68.2191 116.234 68.249 116.159 68.249H113.202L107.497 71.1612H107.407C107.348 71.1612 107.318 71.1313 107.318 71.0715V70.0112C107.318 69.9216 107.318 69.8917 107.407 69.8469L111.977 67.6516L107.407 65.4114C107.318 65.3666 107.318 65.3218 107.318 65.2472V64.2316L107.333 64.2615Z" fill="#46332C"/>
<path d="M13.1864 43.1599C14.0676 41.2632 15.1727 40.621 16.5616 41.2184C16.9798 41.4275 17.3233 41.7262 17.4875 42.0696C17.6518 42.4131 17.7414 42.8761 17.6966 43.4585C18.4583 42.3982 19.429 42.0995 20.6088 42.6521C21.3705 42.9956 21.8334 43.5332 21.9678 44.2202C22.1023 44.9072 21.9231 45.7883 21.4153 46.8785L20.3998 49.1187C20.355 49.2083 20.2803 49.2381 20.2355 49.2083L12.2456 45.5792C12.156 45.5344 12.1261 45.4896 12.156 45.4149L13.1715 43.1748L13.1864 43.1599ZM13.515 44.8474L16.1435 46.0273L16.696 44.8026C16.9947 44.1754 17.0694 43.6676 17.0395 43.2345C16.9499 42.8612 16.6662 42.5625 16.1883 42.3534C15.7104 42.1443 15.337 42.1443 15.0084 42.3534C14.6799 42.5625 14.3812 43.0254 14.0377 43.7124L13.5299 44.8474H13.515ZM16.9798 46.4604L19.892 47.7746L20.4894 46.4604C20.8329 45.6987 20.9523 45.1013 20.9075 44.6832C20.8179 44.265 20.5342 43.9215 20.0563 43.7124C19.5037 43.4585 19.0407 43.4585 18.6674 43.6676C18.294 43.8767 17.9505 44.3845 17.607 45.1013L16.9798 46.4604ZM17.7116 34.4083C18.3388 33.4376 19.0258 32.885 19.8322 32.7207C20.5939 32.5117 21.4452 32.7207 22.2815 33.2733L24.7307 34.8414C25.6118 35.394 26.1196 36.066 26.2989 36.8277C26.4631 37.6341 26.254 38.4705 25.6268 39.4561C25.0294 40.4269 24.3125 40.9794 23.5509 41.1885C22.7892 41.3528 21.938 41.1885 21.0569 40.5911L18.6524 39.0678C17.7713 38.4705 17.2187 37.7984 17.0395 37.0368C16.92 36.2751 17.1291 35.394 17.7116 34.4083ZM21.6841 34.2888C21.0568 33.8707 20.5043 33.7363 19.9965 33.8707C19.444 33.9902 18.981 34.3784 18.6076 34.9758C18.2343 35.6031 18.055 36.2004 18.1895 36.7082C18.3239 37.216 18.6525 37.6789 19.2946 38.0672L21.699 39.6353C22.2964 40.0087 22.8789 40.1431 23.3866 40.0087C23.8944 39.8743 24.3574 39.5457 24.7755 38.9036C25.1489 38.2763 25.2833 37.7237 25.1937 37.1712C25.0742 36.6634 24.6859 36.2004 24.0886 35.8122L21.6841 34.2888ZM25.9553 24.8204C25.9553 24.8204 26.0748 24.7756 26.1196 24.8204L26.717 25.373C26.7618 25.4626 26.7618 25.4925 26.717 25.5821L24.9846 27.3593L30.6447 32.7655C30.7343 32.8551 30.7343 32.885 30.6447 32.9746L30.0474 33.6019C29.9577 33.6915 29.9279 33.6915 29.8383 33.6019L24.1782 28.1956L22.4458 30.0176C22.4458 30.0176 22.3263 30.0624 22.2815 30.0176L21.6841 29.465C21.6393 29.3754 21.6393 29.3456 21.6841 29.256L25.9553 24.8204ZM32.6758 19.3993C32.7654 19.3097 32.7953 19.3097 32.8849 19.3993L33.3478 20.0265C33.3478 20.0265 33.3926 20.146 33.3478 20.1908L31.3616 21.7589L36.2302 27.882C36.275 27.9716 36.275 28.0463 36.1854 28.0911L35.5133 28.6436C35.4237 28.6885 35.3939 28.6885 35.3043 28.6436L30.4805 22.4757L28.4942 23.9991C28.4942 23.9991 28.3747 24.0439 28.3299 23.9991L27.8221 23.3718C27.7773 23.2822 27.7773 23.2523 27.8669 23.1627L32.6908 19.3993H32.6758ZM40.2326 15.2176C40.3222 15.1728 40.3521 15.2176 40.3969 15.3072L40.7702 15.9793C40.815 16.0689 40.7702 16.1436 40.6806 16.1884L37.2159 17.9208L38.5301 20.5044L41.6962 18.8915C41.7858 18.8467 41.8156 18.8467 41.8604 18.9363L42.204 19.6084C42.2488 19.698 42.2488 19.7278 42.1592 19.7726L38.9931 21.3855L40.382 24.0887L43.8019 22.3115C43.8915 22.2667 43.9662 22.3115 44.011 22.4011L44.3545 23.0731C44.3993 23.1627 44.3993 23.2374 44.3097 23.2822L39.919 25.4776C39.8294 25.5224 39.7995 25.5224 39.7547 25.4328L35.7821 17.6071C35.7373 17.5175 35.7373 17.4877 35.827 17.4429L40.2177 15.2027L40.2326 15.2176ZM50.5523 17.7117C50.8062 18.3837 50.8062 18.9363 50.5523 19.4441C50.2984 19.9518 49.7906 20.2953 49.0738 20.5492C47.6849 21.057 46.744 20.594 46.281 19.235L45.3103 16.4871C45.0564 15.815 45.0564 15.2176 45.3103 14.7099C45.5642 14.2469 46.0271 13.9034 46.744 13.6495C47.416 13.3956 48.0134 13.3508 48.4764 13.5599C48.8945 13.7242 49.238 14.1573 49.4023 14.7397V14.7845C49.4023 14.7845 49.4919 14.8742 49.5666 14.8293L50.4179 14.5307C50.5075 14.4859 50.5373 14.4411 50.5075 14.3664C50.2536 13.4853 49.7458 12.8879 49.0289 12.5892C48.3121 12.2905 47.416 12.2905 46.4005 12.6788C45.385 13.0223 44.6681 13.5599 44.2798 14.3216C43.8616 15.0832 43.8617 15.9345 44.1902 16.8604L45.1161 19.6084C45.4596 20.5343 45.9973 21.2213 46.7291 21.5498C47.4609 21.8784 48.2972 21.9232 49.2231 21.5946C49.8205 21.3855 50.2387 21.1317 50.612 20.7882C50.9555 20.4447 51.2094 20.0713 51.3288 19.6532C51.4184 19.907 51.5379 20.1609 51.7022 20.4148C51.747 20.5044 51.7918 20.5044 51.8665 20.5044L52.5385 20.2505C52.5385 20.2505 52.6281 20.2057 52.6281 20.1609V20.0713C52.419 19.6083 52.21 19.1454 52.0009 18.5928L51.1198 16.0092C51.075 15.9196 51.0302 15.8897 50.9555 15.9196L47.9985 16.9351C47.9089 16.9799 47.9089 17.0247 47.9089 17.0994L48.1628 17.8162C48.2076 17.9058 48.2524 17.9357 48.3271 17.9058L50.3581 17.189L50.5224 17.6967L50.5523 17.7117ZM61.4543 19.0259C61.4543 19.0259 61.4543 19.1155 61.3647 19.1155L60.394 19.235C60.3044 19.2798 60.2297 19.235 60.1849 19.1454L59.259 17.2487L55.4059 17.7565L54.9878 19.8324C54.9878 19.922 54.943 19.9518 54.8683 19.9518L53.9424 20.0713C53.8527 20.0713 53.8229 20.0265 53.8229 19.9518L55.7195 10.8568C55.7195 10.7672 55.8092 10.7373 55.8839 10.7373L57.0636 10.573C57.1532 10.573 57.2279 10.5731 57.2727 10.6627L61.4543 18.996V19.0408V19.0259ZM55.5851 16.6961L58.8408 16.278L56.6007 11.7081L55.5851 16.6961ZM69.28 10.6477C71.3559 10.9016 72.2818 11.7827 72.1175 13.2762C72.0279 13.7839 71.8636 14.1573 71.5649 14.456C71.3111 14.7099 70.8929 14.919 70.3403 15.0534C71.5649 15.4715 72.1175 16.3228 71.9532 17.5922C71.8636 18.4435 71.4903 19.0259 70.8929 19.3694C70.2656 19.7129 69.3696 19.7876 68.1898 19.6233L65.7405 19.3246C65.6509 19.3246 65.621 19.2798 65.621 19.2051L66.6814 10.4984C66.6814 10.4088 66.771 10.3789 66.8457 10.3789L69.2949 10.6776L69.28 10.6477ZM67.7119 11.499L67.3684 14.3365L68.7274 14.5008C69.3994 14.5904 69.952 14.5456 70.2955 14.3365C70.639 14.1722 70.8481 13.7839 70.9227 13.2762C70.9675 12.8132 70.8331 12.4249 70.5494 12.171C70.2656 11.9171 69.7429 11.7081 68.9365 11.6185L67.7119 11.499ZM67.2489 15.2624L66.8755 18.4285L68.2644 18.5928C69.1157 18.7123 69.7429 18.6824 70.1312 18.4733C70.5046 18.3091 70.7286 17.9208 70.8033 17.3682C70.8929 16.7708 70.7585 16.3527 70.4299 16.054C70.1014 15.7553 69.5488 15.5462 68.7423 15.4566L67.2638 15.2475L67.2489 15.2624ZM80.6898 13.1866C80.7794 13.2314 80.8093 13.2762 80.7794 13.3508L80.5704 14.1125C80.5704 14.2021 80.4807 14.232 80.4061 14.232L76.6874 13.1716L75.881 15.9196L79.3009 16.8903C79.3905 16.8903 79.4204 16.9799 79.4204 17.0546L79.2113 17.7714C79.1665 17.861 79.1217 17.8909 79.047 17.861L75.6271 16.8903L74.8206 19.8025L78.5393 20.8628C78.6289 20.9076 78.6587 20.9524 78.6289 21.0271L78.4198 21.7888C78.4198 21.8784 78.3302 21.9082 78.2555 21.8784L73.5213 20.5642C73.4317 20.5193 73.4019 20.4745 73.4317 20.3999L75.8063 11.947C75.8063 11.8574 75.8959 11.8275 75.9706 11.8574L80.7048 13.1716L80.6898 13.1866ZM86.2753 25.5672V25.6568C86.2305 25.7464 86.1857 25.7464 86.111 25.7016L85.1851 25.2386C85.0955 25.1938 85.0955 25.1191 85.0955 25.0743L84.752 20.6836L83.1839 19.8772L81.4963 23.2225C81.4515 23.3121 81.4067 23.3121 81.332 23.2673L80.5256 22.8939C80.436 22.8491 80.436 22.7744 80.4808 22.6848L84.4085 14.8592C84.4533 14.7696 84.528 14.7696 84.6176 14.8144L86.9921 16.039C87.9629 16.502 88.605 17.0546 88.8888 17.6818C89.1427 18.2792 89.0979 18.9512 88.7245 19.7129C88.4258 20.2655 88.0525 20.6836 87.5895 20.9375C87.0817 21.1914 86.574 21.281 85.9766 21.1466L86.2753 25.5821V25.5672ZM84.9611 19.7428C85.6331 20.0863 86.1857 20.2057 86.6038 20.1161C87.022 20.0713 87.3655 19.7428 87.6642 19.235C87.9181 18.7272 87.9629 18.2643 87.7837 17.9208C87.6044 17.5773 87.1863 17.2039 86.4694 16.8604L85.0805 16.1436L83.6021 19.0558L84.9611 19.7278V19.7428ZM93.2048 30.8241L93.16 30.9137C93.1152 30.9585 93.0704 30.9585 93.0405 30.9137L92.1594 30.1968C92.0698 30.152 92.0698 30.1072 92.0698 30.0325L92.488 24.7906L90.5465 25.0893L88.7693 27.3742C88.6797 27.4638 88.6498 27.4638 88.5602 27.419L87.8882 26.8665C87.7986 26.7768 87.7986 26.747 87.8434 26.6574L93.2496 19.7726C93.3392 19.683 93.3691 19.683 93.4587 19.7726L94.1756 20.3252C94.1756 20.3252 94.2204 20.4447 94.1756 20.4895L91.5173 23.9094L97.3566 22.8939C97.3566 22.8939 97.4462 22.8939 97.5209 22.9387L98.4468 23.6556C98.4468 23.6556 98.4916 23.7452 98.4916 23.775C98.4916 23.8049 98.4468 23.8198 98.402 23.8646L93.6678 24.5815L93.2048 30.839V30.8241ZM96.9683 33.7811C97.4313 34.3336 97.9391 34.5875 98.4468 34.6323C98.9994 34.6771 99.5071 34.4681 100.06 34.0051L104.495 30.1968C104.495 30.1968 104.615 30.152 104.659 30.2416L105.257 30.9137C105.347 30.9585 105.347 31.0331 105.257 31.078L100.821 34.8862C100.06 35.5583 99.2533 35.8569 98.4468 35.7673C97.5956 35.6777 96.8787 35.2596 96.2067 34.4531C95.4898 33.6467 95.1911 32.8402 95.2359 32.0487C95.2807 31.2572 95.6989 30.4806 96.5053 29.8085L100.896 26.0003C100.986 25.9555 101.016 25.9555 101.06 26.0451L101.658 26.7171C101.747 26.8067 101.747 26.8366 101.658 26.8814L97.2222 30.6897C96.7144 31.1526 96.4157 31.6604 96.3709 32.213C96.3261 32.7207 96.4904 33.2733 96.9683 33.7811ZM110.424 38.5153C110.514 38.6049 110.469 38.6795 110.379 38.7244L109.752 39.1425C109.663 39.1873 109.588 39.1873 109.543 39.0977L108.184 37.0218L101.628 41.2931C101.538 41.3379 101.464 41.2931 101.419 41.2483L100.956 40.4866C100.866 40.397 100.911 40.3671 101.001 40.2775L107.557 36.0063L106.198 33.9304C106.153 33.8408 106.153 33.8109 106.243 33.7661L106.915 33.3032C107.004 33.2584 107.034 33.3032 107.079 33.348L110.424 38.5003V38.5153ZM105.765 50.3881C105.675 50.4329 105.645 50.3881 105.6 50.3433L105.257 49.4174C105.212 49.3278 105.212 49.2979 105.302 49.2083L106.915 47.8493L105.481 44.2202L103.36 44.3397C103.36 44.3397 103.241 44.2949 103.241 44.2202L102.897 43.3689C102.852 43.2793 102.897 43.2047 102.987 43.2047L112.291 42.8313C112.291 42.8313 112.41 42.8761 112.455 42.9508L112.873 44.0858C112.918 44.1754 112.918 44.2053 112.829 44.2949L105.809 50.3881H105.765ZM106.526 44.1306L107.751 47.222L111.634 43.8767L106.511 44.1306H106.526Z" fill="#46332C"/>
<path fill-rule="evenodd" clip-rule="evenodd" d="M13.9032 55.4648C14.5752 55.4648 15.1726 56.0174 15.1726 56.7343C15.1726 57.4063 14.5752 58.0037 13.9032 58.0037C13.1863 58.0037 12.6338 57.4063 12.6338 56.7343C12.6338 56.0174 13.1863 55.4648 13.9032 55.4648Z" fill="#46332C"/>
<path fill-rule="evenodd" clip-rule="evenodd" d="M111.215 55.4648C111.932 55.4648 112.485 56.0174 112.485 56.7343C112.485 57.4063 111.932 58.0037 111.215 58.0037C110.543 58.0037 109.946 57.4063 109.946 56.7343C109.946 56.0174 110.543 55.4648 111.215 55.4648Z" fill="#46332C"/>
<path d="M49.3722 90.0088V109.707C49.3722 114.023 49.7456 116.562 50.4773 117.324C50.8507 117.742 51.6572 118.041 52.8818 118.25V120.37H33.0938V118.474C37.2007 118.354 39.7694 117.667 40.8297 116.532C41.8901 115.352 42.4427 112.769 42.4427 108.751V72.7745C42.4427 68.7572 41.8901 66.1735 40.8297 64.9937C39.7694 63.8587 37.2007 63.1717 33.0938 63.0074V61.1406H56.1823C62.1859 61.1406 67.1292 62.5743 71.0271 65.4119C74.91 68.2793 76.8664 71.7142 76.8664 75.7315C76.8664 79.1963 75.597 82.0338 73.103 84.274C70.5641 86.4693 66.7558 88.127 61.6483 89.2172C67.3084 90.2776 71.7141 92.0846 74.8802 94.7579C78.0462 97.4312 79.6143 100.552 79.6143 104.226C79.6143 109.304 77.4638 113.277 73.1926 116.099C71.1167 117.458 68.6226 118.504 65.7552 119.22V116.472C66.3825 116.099 66.9799 115.666 67.5324 115.158C69.8622 112.963 70.9972 109.543 70.9972 104.883C70.9972 99.6863 69.683 95.878 67.0247 93.5482C64.3663 91.1737 60.0503 89.9938 54.2109 89.9938H49.3872L49.3722 90.0088ZM62.7684 119.803C60.6178 120.146 58.3329 120.311 55.794 120.355V118.459H56.6004C58.975 118.459 60.9912 118.205 62.7684 117.742V119.818V119.803ZM56.5556 88.2316C60.7821 88.2316 63.9482 87.216 65.9792 85.2298C68.0103 83.1987 69.0259 80.0774 69.0259 75.8062C69.0259 71.3259 67.8908 68.0702 65.6507 66.0391C63.4105 64.008 59.7815 62.9925 54.7486 62.9925C52.3442 62.9925 50.8657 63.336 50.2683 63.9184C49.6709 64.5009 49.3872 66.5767 49.3872 70.0863V88.2166H56.5706L56.5556 88.2316Z" fill="#46332C"/>
<path d="M62.7685 103.614V123.267C62.7685 127.628 63.1419 130.152 63.8288 130.914C64.5905 131.675 66.6216 132.049 69.9968 132.049C74.8952 132.049 78.5392 130.943 80.869 128.748C83.1987 126.553 84.3786 123.133 84.3786 118.428C84.3786 113.724 83.363 110.439 81.2871 108.064C81.6306 107.004 81.7949 105.869 81.8845 104.644C84.3785 105.615 86.4992 106.839 88.2316 108.318C91.3977 110.946 93.0106 114.112 93.0106 117.786C93.0106 122.864 90.8601 126.792 86.5441 129.629C82.2728 132.497 76.2244 133.9 68.4884 133.9H46.4602V132.034C50.5672 131.869 53.1807 131.227 54.241 130.047C55.3013 128.912 55.8091 126.284 55.8091 122.267V92.7115C58.5122 92.8011 60.842 93.1744 62.7835 93.8465V101.792H68.8767C68.9663 102.389 68.9962 102.971 68.9962 103.614C68.5332 103.569 68.0702 103.569 67.5624 103.569H62.7835L62.7685 103.614ZM80.197 97.819C81.6755 95.8327 82.3923 92.9952 82.3923 89.411C82.3923 84.8858 81.2872 81.675 79.0171 79.6439C76.777 77.6128 73.1479 76.5973 68.1151 76.5973C65.7405 76.5973 64.262 76.8959 63.6795 77.5232C63.0822 78.1206 62.7984 79.166 62.7984 82.6457V85.1397C61.066 85.8118 58.9901 86.1105 56.5857 86.1105H55.824V85.304C55.824 81.3315 55.3162 79.7634 54.2559 78.5835C53.1956 77.4037 50.5821 76.7615 46.4751 76.5973V74.7305H69.5935C75.5524 74.7305 80.4956 76.1642 84.3935 79.0017C88.2914 81.8392 90.2329 85.2592 90.2329 89.3213C90.2329 92.7413 89.0082 95.6237 86.4694 97.819C85.1999 98.954 83.5124 99.9696 81.5261 100.821C81.2274 99.7605 80.8092 98.7897 80.2119 97.819H80.197Z" fill="#46332C"/>
<path d="M49.8805 89.2482V108.902C49.8805 113.263 50.2241 115.787 50.9409 116.548C51.3591 116.966 52.1207 117.265 53.3453 117.429V119.55H51.4487V117.429C50.2241 117.265 49.4176 116.966 49.0442 116.548C48.3274 115.787 47.9839 113.248 47.9839 108.902V89.2482H49.8805ZM54.7342 60.3203H56.6757C62.6345 60.3203 67.5778 61.754 71.4757 64.6363C75.3287 67.4291 77.2702 70.8042 77.315 74.7768C80.1824 75.4488 82.6914 76.5988 84.8867 78.1968C88.7697 81.0642 90.7261 84.4991 90.7261 88.5164C90.7261 91.9812 89.4567 94.8187 86.9626 97.0589C85.6484 98.1939 84.0056 99.2094 81.9745 100.061C81.9297 99.762 81.855 99.5081 81.7654 99.2542C83.0349 98.5822 84.14 97.8653 85.0211 97.0589C87.56 94.8187 88.8294 91.9812 88.8294 88.5164C88.8294 84.4991 86.8879 81.0791 82.9602 78.1968C80.8096 76.5839 78.2708 75.4488 75.4333 74.7768C75.3885 70.8042 73.447 67.4141 69.5939 64.6363C65.711 61.7689 60.7528 60.3203 54.7492 60.3203H54.7342ZM76.8968 78.2864C76.2994 80.2726 75.2092 82.005 73.5515 83.4387C71.0575 85.6789 67.2492 87.3217 62.0968 88.382C67.757 89.4424 72.2074 91.2942 75.3287 93.9675C78.4948 96.5959 80.0629 99.762 80.0629 103.436C80.0629 108.514 77.9422 112.441 73.6411 115.279C71.5653 116.668 69.0712 117.683 66.2038 118.4V117.848C68.2797 117.22 70.1316 116.324 71.7445 115.264C76.0157 112.426 78.1663 108.499 78.1663 103.421C78.1663 99.7471 76.5982 96.566 73.4321 93.9525C70.266 91.2942 65.8603 89.4274 60.2002 88.3671C65.3227 87.3067 69.1608 85.664 71.6549 83.4238C73.5515 81.7362 74.7463 79.7051 75.2093 77.3007C75.8365 77.5546 76.3891 77.8981 76.8968 78.2714V78.2864ZM63.2319 102.809V122.507C63.2319 126.823 63.6052 129.362 64.337 130.124C64.9642 130.84 66.6668 131.184 69.4595 131.259H68.5784C65.2032 131.259 63.1722 130.885 62.4105 130.124C61.7385 129.362 61.3501 126.823 61.3501 122.507V102.809H63.2468H63.2319ZM82.3031 104.72C82.3031 104.422 82.3479 104.168 82.3479 103.914C84.8419 104.884 86.9626 106.109 88.7249 107.543C91.8462 110.201 93.459 113.337 93.459 117.011C93.459 122.089 91.3085 126.061 87.0373 128.884C82.7212 131.722 76.6728 133.155 68.9368 133.155H67.0402C74.7762 133.155 80.8246 131.722 85.0958 128.884C89.4119 126.047 91.5624 122.074 91.5624 117.011C91.5624 113.337 89.9495 110.201 86.7834 107.543C85.514 106.438 83.9907 105.512 82.3031 104.705V104.72ZM56.3023 92.0708V91.9513C58.9607 92.0708 61.2904 92.4591 63.2319 93.0863V101.031H61.3352V93.0863C59.8567 92.5786 58.2139 92.2351 56.3023 92.0708ZM67.4284 101.031H69.3699C69.4147 101.629 69.4595 102.211 69.4595 102.853C68.9966 102.853 68.5336 102.809 68.0258 102.809H67.5628C67.5628 102.211 67.5181 101.629 67.4434 101.031H67.4284ZM67.5927 75.8371C65.7707 75.9267 64.6357 76.2105 64.1279 76.7183C63.5306 77.3156 63.2468 78.361 63.2468 81.8706V84.3199C61.5592 84.9919 59.4834 85.3354 57.0341 85.3354H56.3172V85.2906C58.2139 85.201 59.9164 84.8724 61.3501 84.3199V81.8706C61.3501 78.361 61.6489 77.3007 62.2313 76.7183C62.8137 76.1358 64.3072 75.7923 66.6668 75.7923C67.0103 75.7923 67.294 75.8371 67.5927 75.8371ZM49.8805 76.3897V87.471H47.9839V76.0611C48.6559 76.1508 49.2981 76.2702 49.8805 76.4046V76.3897ZM54.316 62.2319C52.4493 62.3215 51.2694 62.6053 50.7617 63.113C50.1643 63.7403 49.8805 65.8162 49.8805 69.2809V73.9255H47.9839V69.2809C47.9839 65.8162 48.2378 63.7403 48.8352 63.113C49.4325 62.5157 50.9558 62.2319 53.3155 62.2319H54.331H54.316Z" fill="url(#paint0_linear_1175_456)"/>
<path d="M62.142 0C79.2269 0 94.7735 7.01916 106.019 18.2647C117.265 29.5103 124.284 45.0719 124.284 62.1867V131.736C124.284 148.821 117.31 164.368 106.019 175.613C94.7735 186.904 79.212 193.878 62.142 193.878C45.072 193.878 29.5103 186.904 18.2648 175.613C6.97437 164.368 0 148.806 0 131.736V62.1867C0 45.0719 6.97437 29.5551 18.2648 18.2647C29.5551 6.97435 45.072 0 62.142 0ZM105.004 19.3251C94.0119 8.28858 78.8386 1.4785 62.142 1.4785C45.4453 1.4785 30.272 8.28858 19.2803 19.3251C8.28858 30.3168 1.43371 45.4901 1.43371 62.1867V131.736C1.43371 148.433 8.28858 163.606 19.2803 174.598C30.272 185.59 45.4453 192.444 62.142 192.444C78.8386 192.444 94.0119 185.59 105.004 174.598C115.995 163.606 122.85 148.433 122.85 131.736V62.1867C122.85 45.4901 115.995 30.3168 105.004 19.3251Z" fill="url(#paint1_linear_1175_456)"/>
<path d="M62.1419 3.50977C78.3308 3.50977 93.0411 10.1406 103.749 20.8038C114.397 31.452 121.043 46.2072 121.043 62.411V131.527C121.043 147.716 114.412 162.426 103.749 173.134C93.0561 183.783 78.3457 190.428 62.1419 190.428C45.9381 190.428 31.2427 183.798 20.5347 173.134C9.88652 162.441 3.24072 147.731 3.24072 131.527V62.411C3.24072 46.2221 9.87159 31.4669 20.5347 20.8038C31.2277 10.1556 45.9381 3.50977 62.1419 3.50977ZM102.674 21.8193C92.2795 11.425 77.9425 4.9584 62.127 4.9584C46.3115 4.9584 31.9894 11.425 21.5802 21.8193C11.1709 32.2136 4.71923 46.5954 4.71923 62.411V131.527C4.71923 147.298 11.141 161.665 21.5802 172.074C31.9745 182.513 46.3115 188.935 62.127 188.935C77.9425 188.935 92.2645 182.513 102.674 172.074C113.113 161.68 119.58 147.298 119.58 131.527V62.411C119.58 46.5954 113.113 32.2734 102.674 21.8193Z" fill="url(#paint2_linear_1175_456)"/>
<path d="M62.1412 22.4023C73.4316 22.4023 83.6616 27.0171 91.0989 34.4544C98.5362 41.8917 103.151 52.1218 103.151 63.4121V130.467C103.151 141.758 98.5362 152.033 91.0989 159.47C83.6616 166.907 73.4316 171.522 62.1412 171.522C50.8508 171.522 40.6207 166.907 33.1834 159.47C25.7461 152.033 21.1313 141.758 21.1313 130.467V63.4121C21.1313 52.1218 25.7461 41.8917 33.1834 34.4544C40.6207 27.0171 50.8508 22.4023 62.1412 22.4023ZM90.0834 35.4699C82.8999 28.3313 72.9985 23.851 62.1412 23.851C51.2839 23.851 41.3824 28.3313 34.1989 35.4699C27.0155 42.6534 22.58 52.5548 22.58 63.4121V130.467C22.58 141.37 27.0155 151.271 34.1989 158.41C41.3824 165.593 51.2839 170.029 62.1412 170.029C72.9985 170.029 82.8999 165.593 90.0834 158.41C97.2668 151.271 101.702 141.37 101.702 130.467V63.4121C101.702 52.5399 97.2668 42.6534 90.0834 35.4699Z" fill="url(#paint3_linear_1175_456)"/>
<path d="M17.7119 69.8773C17.7119 69.9669 17.667 69.9968 17.5924 69.9968H8.88563C8.79602 69.9968 8.76615 69.952 8.76615 69.8773V68.9962C8.76615 68.9066 8.81096 68.8319 8.88563 68.8319L17.5924 68.8767C17.682 68.8767 17.7119 68.9215 17.7119 68.9962V69.8773ZM17.7119 79.7788C17.7119 79.8684 17.667 79.8983 17.5476 79.8983H16.7859C16.6963 79.8983 16.6664 79.8535 16.6664 79.7788V77.2848H8.88563C8.79602 77.2848 8.76615 77.24 8.76615 77.1653V76.2842C8.76615 76.1946 8.81096 76.1647 8.88563 76.1647H16.6664V73.6706C16.6664 73.581 16.7112 73.5512 16.7859 73.5512H17.5924C17.682 73.5512 17.7119 73.596 17.7119 73.6706V79.7937V79.7788ZM8.8259 89.068C8.73629 89.068 8.70642 89.0232 8.70642 88.9485V87.9778C8.70642 87.8882 8.75123 87.8583 8.8259 87.8583L10.8122 87.1862V83.3033L8.8259 82.6313C8.73629 82.6313 8.70642 82.5417 8.70642 82.5118V81.5859C8.70642 81.4664 8.79603 81.4664 8.8707 81.4664L17.5774 84.513C17.667 84.5578 17.6969 84.6026 17.6969 84.6773V85.9019C17.6969 85.9915 17.6521 86.0214 17.5774 86.0214L8.8707 89.1128H8.8259V89.068ZM11.8277 83.5721V86.8726L16.6515 85.2298L11.8277 83.5871V83.5721ZM17.7119 93.1301C17.7119 93.2496 17.667 93.2944 17.5476 93.2944H9.76677V97.0579C9.76677 97.1475 9.72197 97.1774 9.6473 97.1774H8.88563C8.76615 97.1774 8.72135 97.1325 8.72135 97.0579V92.2341C8.72135 92.1445 8.76615 92.1146 8.88563 92.1146H17.5476C17.667 92.1146 17.7119 92.1594 17.7119 92.2341V93.1152V93.1301ZM17.7119 101.538C17.7119 101.628 17.667 101.658 17.5476 101.658H8.88563C8.76615 101.658 8.72135 101.613 8.72135 101.538V100.657C8.72135 100.567 8.76615 100.538 8.88563 100.538H17.5476C17.667 100.538 17.7119 100.582 17.7119 100.657V101.538ZM8.8259 112.366C8.73629 112.366 8.70642 112.321 8.70642 112.246V111.275C8.70642 111.186 8.75123 111.156 8.8259 111.111L10.8122 110.484V106.601L8.8259 105.929C8.73629 105.929 8.70642 105.839 8.70642 105.765V104.883C8.70642 104.764 8.79603 104.764 8.8707 104.764L17.5774 107.811C17.667 107.855 17.6969 107.9 17.6969 107.975V109.2C17.6969 109.289 17.6521 109.319 17.5774 109.319L8.8707 112.41H8.8259V112.366ZM11.8277 106.87V110.17L16.6515 108.527L11.8277 106.885V106.87ZM8.70642 120.52C8.70642 120.43 8.75123 120.4 8.8259 120.355L16.4424 116.547H8.8707C8.75123 116.547 8.70642 116.502 8.70642 116.428V115.547C8.70642 115.457 8.75123 115.427 8.8707 115.427H17.5326C17.6222 115.427 17.6521 115.472 17.6521 115.547V117.115C17.6521 117.204 17.6521 117.234 17.5625 117.279L9.94598 120.998H17.5177C17.6073 120.998 17.6372 121.042 17.6372 121.162V122.013C17.6372 122.103 17.5924 122.177 17.5177 122.177L8.81095 122.133C8.72134 122.133 8.6915 122.088 8.6915 122.013V120.535L8.70642 120.52ZM8.66162 129.361C8.66162 129.271 8.70643 129.241 8.7811 129.241L17.4878 128.988C17.5774 128.988 17.6073 129.032 17.6073 129.107L17.6521 129.988C17.6521 130.108 17.6073 130.152 17.4878 130.152L13.814 130.242L13.9334 134.633L17.6073 134.543C17.6969 134.543 17.7268 134.588 17.7716 134.663V135.544C17.7716 135.633 17.7268 135.663 17.6521 135.663L8.94538 135.917C8.85577 135.917 8.8259 135.872 8.8259 135.798L8.7811 134.917C8.7811 134.797 8.8259 134.752 8.94538 134.752L12.9179 134.663L12.7984 130.272L8.8259 130.362C8.73629 130.362 8.66162 130.317 8.66162 130.242V129.361ZM10.9018 146.446C10.8122 146.491 10.7823 146.446 10.7823 146.356L10.5732 145.43C10.5284 145.341 10.5732 145.266 10.618 145.221L12.3952 144.116L11.5439 140.353L9.42327 140.144C9.33366 140.144 9.30379 140.099 9.30379 140.024L9.09471 139.143C9.0499 139.053 9.09471 138.979 9.21419 139.023L18.3839 139.994C18.4735 139.994 18.5034 140.039 18.5034 140.114L18.8021 141.293C18.8021 141.383 18.8021 141.413 18.7125 141.458L10.9317 146.446H10.8869H10.9018ZM12.5445 140.397L13.3062 143.608L17.6222 140.905L12.5445 140.397ZM13.7692 154.047C13.7692 154.047 13.7244 153.928 13.7692 153.883L19.1008 147.252L12.2459 150.418C12.1563 150.463 12.0816 150.418 12.0368 150.329L11.6933 149.522C11.6485 149.433 11.6485 149.403 11.7381 149.358L19.6384 145.729C19.728 145.684 19.8027 145.729 19.8475 145.819L20.4747 147.208C20.4747 147.297 20.4747 147.327 20.4299 147.372L15.0535 153.973L21.9383 150.807C22.0279 150.807 22.1025 150.807 22.1473 150.896L22.4908 151.703C22.5356 151.792 22.5357 151.822 22.446 151.867L14.5457 155.496C14.4561 155.541 14.3815 155.496 14.3367 155.407L13.7393 154.047H13.7692ZM25.1492 156.079C25.9556 157.214 26.329 158.229 26.2095 159.2C26.09 160.126 25.4926 161.022 24.3875 161.783L23.8349 162.157C22.6551 163.038 21.5948 163.381 20.5792 163.262C19.6085 163.098 18.6826 162.456 17.8761 161.321L16.4872 159.379C16.3976 159.289 16.4424 159.26 16.4872 159.215L23.5512 154.092C23.6408 154.047 23.7155 154.047 23.7603 154.137L25.1492 156.079ZM23.7901 160.768C24.5966 160.215 25.0148 159.588 25.1044 158.901C25.194 158.214 24.9401 157.423 24.2979 156.571L23.5363 155.511L17.8761 159.618L18.6378 160.678C19.265 161.53 19.9072 162.037 20.6688 162.112C21.3857 162.202 22.1922 161.948 23.1181 161.261L23.7901 160.753V160.768ZM28.7782 169.31C28.7782 169.31 28.8977 169.266 28.9425 169.355L29.5697 169.953L29.6145 170.042C29.6145 170.087 29.6145 170.162 29.5697 170.206L29.3159 170.46C28.9724 170.834 28.5542 171.088 28.0464 171.177C27.5835 171.297 27.0757 171.267 26.5231 171.058C26.0154 170.893 25.5076 170.55 25.0446 170.087C24.283 169.37 23.8648 168.564 23.82 167.757C23.7752 166.951 24.1187 166.144 24.8356 165.427L26.777 163.352C27.4939 162.59 28.2555 162.246 29.062 162.246C29.9132 162.246 30.7048 162.62 31.4664 163.352C32.1833 164.024 32.6014 164.785 32.7359 165.547C32.8255 166.309 32.6164 167.025 32.019 167.623L31.8099 167.832C31.6904 167.921 31.6008 167.921 31.556 167.877L30.9288 167.249C30.9288 167.249 30.884 167.205 30.884 167.16C30.884 167.115 30.884 167.115 30.9288 167.07C31.3917 166.607 31.6008 166.144 31.6008 165.637C31.556 165.084 31.3021 164.621 30.7496 164.113C30.2418 163.605 29.6892 163.352 29.1815 163.352C28.6289 163.352 28.1211 163.605 27.6133 164.158L25.6271 166.234C25.1641 166.742 24.9102 167.294 24.955 167.802C24.955 168.355 25.2537 168.862 25.7615 169.37C26.314 169.878 26.8218 170.132 27.3296 170.132C27.8373 170.087 28.3003 169.878 28.7633 169.37V169.325L28.7782 169.31ZM36.2155 178.152V178.241C36.2155 178.241 36.126 178.286 36.0513 178.241L35.2 177.644C35.1104 177.599 35.0805 177.554 35.1104 177.48L35.2747 173.119L33.7962 172.148L31.7651 175.239C31.7203 175.329 31.6755 175.329 31.6008 175.284L30.8392 174.821C30.7495 174.732 30.7496 174.702 30.7944 174.612L35.5734 167.339C35.663 167.249 35.6928 167.249 35.7824 167.294L37.9778 168.773C38.8589 169.37 39.4563 169.953 39.6654 170.595C39.8745 171.237 39.755 171.909 39.292 172.581C38.9485 173.134 38.5304 173.507 38.0226 173.686C37.5148 173.895 36.9623 173.895 36.4097 173.731L36.2006 178.166L36.2155 178.152ZM35.5883 172.193C36.2155 172.611 36.7681 172.82 37.2012 172.79C37.6343 172.76 38.0077 172.491 38.3063 171.984C38.6498 171.521 38.7245 171.103 38.6051 170.714C38.4856 170.371 38.0525 169.953 37.4252 169.579L36.111 168.698L34.3338 171.401L35.6032 172.208L35.5883 172.193ZM45.5197 182.244C45.5197 182.244 45.43 182.333 45.4002 182.288L44.4743 181.915C44.3846 181.915 44.3846 181.825 44.3846 181.796L44.4743 179.675L40.8751 178.241L39.516 179.854C39.4712 179.944 39.3966 179.944 39.307 179.899L38.4557 179.555C38.3661 179.555 38.3661 179.466 38.4109 179.391L44.4145 172.417C44.5041 172.327 44.534 172.327 44.6236 172.372L45.7586 172.79C45.8482 172.835 45.8482 172.88 45.8482 172.954L45.5047 182.214V182.259L45.5197 182.244ZM41.5023 177.435L44.5489 178.615L44.8028 173.537L41.5023 177.42V177.435ZM55.3315 175.523C55.4211 175.568 55.451 175.613 55.4212 175.687L55.2569 176.449C55.2569 176.539 55.1673 176.569 55.0926 176.569L51.3291 175.687L50.7019 178.48L53.9576 179.242C54.0472 179.242 54.0771 179.287 54.0472 179.361L53.9277 180.123C53.8829 180.212 53.8381 180.213 53.7634 180.213L50.5078 179.451L49.6266 183.304C49.6266 183.394 49.537 183.394 49.4623 183.394L48.6111 183.184C48.5215 183.184 48.4916 183.095 48.4916 183.02L50.4779 174.567C50.4779 174.478 50.5227 174.448 50.5974 174.448L55.3763 175.553L55.3315 175.523ZM62.8585 175.986C62.9481 175.986 62.978 176.031 62.978 176.106V176.912C62.978 177.002 62.8883 177.031 62.8137 177.031L60.3644 176.942L60.1553 184.723C60.1553 184.812 60.1106 184.842 60.0359 184.842H59.1548C59.0652 184.842 59.0353 184.797 59.0353 184.678L59.1996 176.897L56.7503 176.852C56.6607 176.852 56.6309 176.807 56.6309 176.733L56.6757 175.926C56.6757 175.837 56.7204 175.807 56.7951 175.807L62.8884 175.971L62.8585 175.986ZM70.0419 175.269C70.1614 175.269 70.2062 175.314 70.2062 175.389L70.2958 176.15C70.3406 176.24 70.2958 176.315 70.2062 176.315L66.3531 176.822L66.7265 179.66L70.236 179.197C70.3257 179.152 70.3555 179.197 70.3555 179.316L70.475 180.033C70.475 180.123 70.4302 180.153 70.3555 180.198L66.846 180.616L67.2641 183.618L71.0724 183.11C71.162 183.11 71.1919 183.155 71.2367 183.229L71.3263 183.991C71.3263 184.081 71.2814 184.11 71.2068 184.155L66.383 184.782C66.2934 184.782 66.2635 184.738 66.2187 184.663L65.0837 176.046C65.0837 175.956 65.1285 175.926 65.2032 175.882L70.027 175.254L70.0419 175.269ZM74.9105 174.089C76.2695 173.626 77.3597 173.626 78.211 174C79.0921 174.418 79.7343 175.269 80.1525 176.494L80.3616 177.166C80.8245 178.525 80.8245 179.705 80.4064 180.586C79.9882 181.467 79.0921 182.154 77.748 182.572L75.4631 183.334C75.3735 183.379 75.3436 183.334 75.2988 183.244L72.5957 175C72.5509 174.911 72.5957 174.836 72.6853 174.836L74.9255 174.074L74.9105 174.089ZM79.0025 176.793C78.7038 175.867 78.2409 175.224 77.6136 174.971C76.9864 174.672 76.1799 174.717 75.1644 175.06L73.9398 175.433L76.1351 182.064L77.3597 181.691C78.3753 181.347 79.0473 180.84 79.346 180.168C79.6447 179.54 79.6447 178.644 79.2564 177.584L79.0025 176.778V176.793ZM85.9321 169.057C86.0217 169.012 86.0963 169.012 86.1412 169.101L90.7111 175.404L93.7577 173.208C93.8473 173.119 93.8772 173.119 93.9668 173.208L94.385 173.836C94.4746 173.925 94.4746 173.955 94.385 174.045L90.502 176.837C90.4124 176.927 90.3377 176.882 90.2929 176.837L85.2152 169.773C85.1256 169.684 85.1704 169.654 85.2152 169.564L85.9321 169.057ZM98.6711 169.236C99.1341 168.773 99.3879 168.265 99.4327 167.712C99.4327 167.205 99.1789 166.697 98.7159 166.189L94.6986 162.007C94.609 161.918 94.609 161.888 94.6986 161.798L95.3258 161.201C95.4154 161.111 95.4453 161.111 95.5349 161.201L99.5074 165.338C100.224 166.055 100.568 166.861 100.523 167.668C100.478 168.474 100.105 169.281 99.3431 169.997C98.5815 170.714 97.8198 171.058 97.0134 171.058C96.2069 171.058 95.4453 170.684 94.7284 169.923L90.7111 165.786C90.7111 165.786 90.6663 165.666 90.7111 165.622L91.3831 164.994C91.3831 164.994 91.5026 164.95 91.5474 164.994L95.5647 169.176C96.0725 169.684 96.5803 169.938 97.0881 169.982C97.6406 169.982 98.1484 169.729 98.6562 169.266L98.6711 169.236ZM100.478 154.227C100.478 154.227 100.523 154.182 100.568 154.182C100.613 154.182 100.613 154.227 100.657 154.271L102.524 158.916L107.811 159.125C107.811 159.125 107.856 159.17 107.901 159.17C107.945 159.215 107.945 159.26 107.901 159.289L107.273 160.171C107.228 160.26 107.154 160.26 107.109 160.26L102.793 160.096L104.361 164.068C104.406 164.158 104.406 164.233 104.361 164.277L103.734 165.159L103.644 165.203C103.599 165.203 103.555 165.159 103.555 165.114L101.613 160.126L96.6251 159.961L96.5355 159.917C96.4907 159.872 96.4907 159.827 96.5355 159.797L97.1627 158.916C97.1627 158.916 97.2524 158.826 97.2822 158.826L101.344 158.991L99.8658 155.227C99.8658 155.227 99.8658 155.108 99.8658 155.063L100.493 154.212L100.478 154.227ZM109.991 153.166C110.29 152.539 110.335 151.987 110.156 151.479C109.947 151.016 109.528 150.598 108.886 150.344L103.599 147.939C103.51 147.895 103.51 147.85 103.555 147.775L103.898 146.924C103.943 146.834 104.018 146.834 104.107 146.879L109.349 149.254C110.275 149.672 110.872 150.269 111.126 151.031C111.425 151.837 111.335 152.673 110.917 153.614C110.499 154.585 109.902 155.227 109.14 155.511C108.378 155.795 107.527 155.72 106.601 155.302L101.359 152.927C101.27 152.883 101.24 152.808 101.27 152.718L101.643 151.912C101.688 151.822 101.733 151.822 101.807 151.867L107.094 154.242C107.721 154.54 108.319 154.585 108.782 154.406C109.289 154.242 109.663 153.809 109.962 153.181L109.991 153.166ZM114.77 140.263L114.86 140.218C114.95 140.263 114.95 140.308 114.95 140.382L114.696 141.398C114.696 141.488 114.651 141.518 114.576 141.518L110.439 142.877L110.066 144.564L113.665 145.415C113.755 145.415 113.785 145.505 113.755 145.58L113.546 146.431C113.546 146.521 113.501 146.55 113.426 146.55L104.929 144.564C104.839 144.564 104.809 144.519 104.839 144.445L105.436 141.861C105.645 140.801 106.034 140.039 106.571 139.621C107.079 139.203 107.751 139.113 108.558 139.277C109.185 139.397 109.663 139.696 110.036 140.129C110.38 140.502 110.589 141.01 110.589 141.607L114.815 140.248L114.77 140.263ZM109.439 142.936C109.603 142.175 109.603 141.622 109.439 141.249C109.275 140.875 108.886 140.577 108.304 140.442C107.751 140.323 107.333 140.397 107.034 140.651C106.736 140.905 106.482 141.368 106.318 142.13L105.974 143.653L109.095 144.37L109.439 142.936ZM106.825 130.376C106.825 130.376 106.825 130.287 106.87 130.287H106.99L112.441 133.662L115.398 133.871C115.487 133.871 115.517 133.916 115.517 133.991L115.427 134.872C115.427 134.991 115.383 135.036 115.308 134.991L112.351 134.782L106.437 137.276H106.347C106.347 137.276 106.258 137.231 106.258 137.157L106.347 136.141C106.347 136.052 106.392 136.022 106.467 135.977L111.156 134.11L106.795 131.526C106.706 131.482 106.706 131.437 106.706 131.362L106.795 130.347L106.825 130.376ZM116.592 126.15C116.503 126.15 116.428 126.06 116.383 125.896C116.294 125.523 116.085 125.269 115.756 125.045C115.457 124.836 114.994 124.746 114.442 124.746H106.751C106.661 124.746 106.631 124.701 106.631 124.627V123.746C106.631 123.656 106.676 123.626 106.751 123.626H114.397C115.278 123.626 116.01 123.79 116.518 124.089C117.025 124.433 117.369 124.94 117.488 125.568C117.488 125.657 117.533 125.687 117.533 125.777C117.533 125.866 117.488 125.896 117.444 125.896L116.637 126.15H116.592ZM106.616 114.397C106.616 114.307 106.661 114.277 106.736 114.277H107.497C107.617 114.277 107.662 114.322 107.662 114.397V118.25H110.499V114.74C110.499 114.621 110.544 114.576 110.619 114.576H111.38C111.47 114.576 111.5 114.621 111.5 114.74V118.25H114.502V114.397C114.502 114.307 114.546 114.277 114.621 114.277H115.427C115.517 114.277 115.547 114.322 115.547 114.397V119.265C115.547 119.355 115.502 119.385 115.427 119.385H106.721C106.631 119.385 106.601 119.34 106.601 119.265V114.397H106.616ZM106.616 100.194C106.616 100.194 106.616 100.104 106.661 100.104C106.661 100.06 106.706 100.06 106.751 100.06L115.457 102.464C115.547 102.509 115.577 102.554 115.577 102.628V103.943C115.577 104.032 115.532 104.062 115.457 104.062L110.424 105.541L115.457 107.019C115.547 107.064 115.577 107.109 115.577 107.183V108.408C115.577 108.498 115.532 108.527 115.457 108.572L106.751 111.066H106.706C106.706 111.066 106.616 111.022 106.616 110.947V110.066C106.616 109.976 106.661 109.946 106.706 109.901L114.322 107.781L108.617 106.048L106.885 106.556H106.84C106.84 106.556 106.751 106.511 106.751 106.437V105.511C106.751 105.421 106.795 105.391 106.87 105.346L114.307 103.315L106.691 101.284C106.691 101.284 106.601 101.239 106.601 101.165V100.194H106.616ZM106.616 91.7412C106.616 91.6516 106.661 91.6218 106.736 91.6218H107.497C107.617 91.6218 107.662 91.6666 107.662 91.7412V95.5943H110.499V92.0847C110.499 91.9951 110.544 91.9653 110.619 91.9653H111.38C111.47 91.9653 111.5 92.0101 111.5 92.0847V95.5943H114.502V91.7412C114.502 91.6516 114.546 91.6218 114.621 91.6218H115.427C115.517 91.6218 115.547 91.6666 115.547 91.7412V96.6397C115.547 96.7293 115.502 96.7592 115.427 96.7592H106.721C106.631 96.7592 106.601 96.7144 106.601 96.6397V91.7412H106.616ZM106.616 86.5739C106.616 86.4545 106.661 86.4097 106.736 86.4097H114.516V82.6462C114.516 82.5566 114.561 82.5267 114.636 82.5267H115.442C115.532 82.5267 115.562 82.5715 115.562 82.6462V87.47C115.562 87.5596 115.517 87.5895 115.442 87.5895H106.736C106.646 87.5895 106.616 87.5447 106.616 87.47V86.5889V86.5739ZM115.413 72.7148H115.502C115.502 72.7148 115.592 72.7596 115.592 72.8343V73.8947C115.592 73.8947 115.547 74.0141 115.502 74.0589L111.739 76.2543V78.0315H115.457C115.547 78.0315 115.577 78.0763 115.577 78.151V79.0321C115.577 79.1217 115.532 79.1516 115.457 79.1516H106.751C106.661 79.1516 106.631 79.1068 106.631 79.0321V76.4036C106.631 75.2985 106.84 74.507 107.228 73.9992C107.647 73.4466 108.289 73.1927 109.095 73.1927C109.767 73.1927 110.275 73.357 110.738 73.6557C111.156 73.9544 111.455 74.4174 111.619 75.0147L115.427 72.685L115.413 72.7148ZM110.798 76.553C110.798 75.7465 110.678 75.1939 110.424 74.8654C110.171 74.5368 109.752 74.3576 109.155 74.3576C108.602 74.3576 108.184 74.5219 107.93 74.8654C107.721 75.1641 107.587 75.7167 107.587 76.4783V78.0464H110.798V76.5679V76.553ZM106.616 63.5003C106.616 63.5003 106.616 63.4107 106.661 63.3809H106.78L112.485 66.3379H115.442C115.532 66.3379 115.562 66.3827 115.562 66.4573V67.3385C115.562 67.4281 115.517 67.4579 115.442 67.4579H112.485L106.78 70.4149H106.691C106.601 70.4149 106.601 70.3701 106.601 70.2955V69.2799C106.601 69.1903 106.601 69.1157 106.691 69.1157L111.261 66.8755L106.691 64.6353C106.601 64.6353 106.601 64.5905 106.601 64.5159V63.5003H106.616Z" fill="url(#paint4_linear_1175_456)"/>
<path d="M48.7005 89.2482V108.902C48.7005 113.263 49.044 115.787 49.7608 116.548C50.1342 116.966 50.9406 117.265 52.1652 117.429V119.55H32.3772V117.683C36.4842 117.519 39.0529 116.877 40.1132 115.697C41.1736 114.562 41.7261 111.934 41.7261 107.916V71.9393C41.7261 67.9667 41.1736 65.3831 40.1132 64.2032C39.0529 63.0234 36.4842 62.3364 32.3772 62.217V60.3203H55.4658C61.4694 60.3203 66.4126 61.754 70.3105 64.6363C74.1934 67.4739 76.1499 70.8938 76.1499 74.9112C76.1499 78.376 74.8804 81.2135 72.3864 83.4537C69.8924 85.6938 66.0393 87.3366 60.9317 88.3969C66.5919 89.4573 70.9975 91.3091 74.1636 93.9824C77.3297 96.6108 78.8978 99.7769 78.8978 103.451C78.8978 108.528 76.7472 112.456 72.476 115.294C70.4001 116.683 67.9061 117.698 65.0387 118.415V115.712C65.6659 115.339 66.2633 114.861 66.8159 114.398C69.1456 112.202 70.2807 108.738 70.2807 104.078C70.2807 98.8809 68.9664 95.0726 66.3081 92.7428C63.6498 90.4131 59.3338 89.2333 53.4944 89.2333H48.7154L48.7005 89.2482ZM62.0518 119.012C59.9012 119.356 57.6163 119.52 55.0775 119.565V117.668C55.3762 117.713 55.6301 117.713 55.8839 117.713C58.2585 117.713 60.2746 117.459 62.0518 116.951V119.027V119.012ZM55.8391 87.471C60.0656 87.471 63.2317 86.4555 65.2627 84.4244C67.2938 82.3933 68.3093 79.272 68.3093 75.0008C68.3093 70.5205 67.1743 67.2648 64.9342 65.2337C62.694 63.2475 59.0649 62.2319 54.032 62.2319C51.6575 62.2319 50.1491 62.5306 49.5517 63.113C48.9544 63.7403 48.7005 65.8162 48.7005 69.2809V87.4561H55.8391V87.471Z" fill="url(#paint5_radial_1175_456)"/>
<path d="M62.0522 102.809V122.507C62.0522 126.823 62.4256 129.362 63.1126 130.124C63.8742 130.885 65.9053 131.259 69.2805 131.259C74.179 131.259 77.8229 130.154 80.1527 127.958C82.4825 125.763 83.6623 122.343 83.6623 117.684C83.6623 113.024 82.6468 109.649 80.6157 107.289C80.9144 106.229 81.0786 105.094 81.1682 103.914C83.6623 104.885 85.783 106.109 87.5154 107.543C90.6814 110.201 92.2943 113.338 92.2943 117.011C92.2943 122.089 90.1438 126.062 85.8278 128.884C81.5565 131.722 75.5081 133.156 67.7721 133.156H45.7439V131.259C49.8807 131.139 52.4644 130.452 53.5247 129.317C54.585 128.138 55.0928 125.554 55.0928 121.537V91.9366C57.796 92.0561 60.1257 92.4444 62.0672 93.0717V101.017H68.1604C68.25 101.614 68.2799 102.197 68.2799 102.839C67.8169 102.839 67.3539 102.794 66.8462 102.794H62.0672L62.0522 102.809ZM79.4657 97.0293C80.9442 95.043 81.6611 92.2503 81.6611 88.6212C81.6611 84.1409 80.5559 80.8852 78.2859 78.8541C76.0458 76.8231 72.4167 75.8075 67.3838 75.8075C65.0092 75.8075 63.5307 76.151 62.9483 76.7334C62.3658 77.3159 62.0672 78.3762 62.0672 81.8858V84.335C60.3796 85.0071 58.2589 85.3506 55.8545 85.3506H55.0928V84.5441C55.0928 80.5268 54.585 78.9587 53.5247 77.7789C52.4644 76.6438 49.8957 75.9569 45.7439 75.7926V73.9258H68.8623C74.8211 73.9258 79.7644 75.3595 83.6623 78.197C87.59 81.0644 89.5315 84.4993 89.5315 88.5167C89.5315 91.9814 88.2621 94.819 85.7232 97.0591C84.4538 98.1941 82.7662 99.2097 80.7799 100.061C80.4812 99.0006 80.0631 97.9851 79.4657 97.0143V97.0293Z" fill="url(#paint6_radial_1175_456)"/>
<path fill-rule="evenodd" clip-rule="evenodd" d="M110.499 54.6602C111.216 54.6602 111.769 55.2575 111.769 55.9296C111.769 56.6464 111.216 57.199 110.499 57.199C109.827 57.199 109.275 56.6464 109.275 55.9296C109.275 55.2575 109.827 54.6602 110.499 54.6602Z" fill="#46332C"/>
<path fill-rule="evenodd" clip-rule="evenodd" d="M13.1864 54.6602C13.8584 54.6602 14.4558 55.2575 14.4558 55.9296C14.4558 56.6464 13.8584 57.199 13.1864 57.199C12.4696 57.199 11.917 56.6464 11.917 55.9296C11.917 55.2575 12.4696 54.6602 13.1864 54.6602Z" fill="#46332C"/>
<path d="M12.4699 42.3557C13.351 40.4591 14.4562 39.8169 15.8451 40.4591C16.2632 40.6682 16.6067 40.922 16.771 41.3103C16.9801 41.6538 17.0249 42.1168 16.9801 42.6694C17.7417 41.609 18.7125 41.3551 19.8923 41.8629C20.6539 42.2363 21.1169 42.744 21.2513 43.431C21.3708 44.1479 21.2065 44.9991 20.6988 46.0893L19.6832 48.3295C19.6384 48.4191 19.5936 48.449 19.5189 48.4191L11.529 44.79C11.4394 44.7452 11.4096 44.7004 11.4394 44.6258L12.455 42.3856L12.4699 42.3557ZM12.7985 44.0881L15.4269 45.2679L15.9795 43.9985C16.2782 43.3713 16.3528 42.8635 16.3229 42.4752C16.2333 42.1019 15.9496 41.8032 15.4717 41.5941C14.9938 41.385 14.6205 41.385 14.2919 41.5941C13.9484 41.7584 13.6647 42.2213 13.3212 42.9531L12.8134 44.0881H12.7985ZM16.2632 45.6562L19.1754 46.9705L19.7728 45.701C20.1163 44.9394 20.2357 44.3121 20.1909 43.8791C20.1013 43.4609 19.8176 43.1174 19.3397 42.9083C18.7871 42.6544 18.369 42.6544 17.9508 42.8635C17.5774 43.1174 17.234 43.5804 16.8905 44.2972L16.2632 45.6562ZM16.9801 33.649C17.6073 32.6783 18.2943 32.0809 19.1008 31.9166C19.8624 31.7523 20.7137 31.9166 21.5948 32.4692L23.9992 34.0373C24.8804 34.5899 25.3881 35.2619 25.5673 36.0684C25.7316 36.83 25.5226 37.7112 24.8953 38.6968C24.2979 39.6228 23.6259 40.2201 22.8194 40.3844C22.0578 40.5935 21.2065 40.3844 20.3254 39.8318L17.9209 38.2637C17.0398 37.7112 16.4873 37.0391 16.308 36.2327C16.1886 35.471 16.3976 34.5899 16.9801 33.649ZM20.9676 33.4847C20.3403 33.1114 19.7877 32.977 19.28 33.0666C18.7274 33.186 18.2644 33.5743 17.8911 34.2016C17.5177 34.799 17.3385 35.3814 17.4729 35.8892C17.5924 36.4417 17.9359 36.9047 18.5781 37.2781L20.9825 38.8014C21.5798 39.1747 22.1623 39.3539 22.6701 39.2195C23.2226 39.1001 23.6408 38.7118 24.059 38.0845C24.4324 37.4871 24.5668 36.9047 24.4772 36.3969C24.3577 35.8444 23.9694 35.4262 23.372 35.008L20.9676 33.4847ZM25.2239 24.0611C25.2687 23.9715 25.3433 23.9715 25.3881 24.0611L25.9855 24.6137C25.9855 24.6137 26.0303 24.7332 25.9855 24.778L24.2531 26.6L29.9132 32.0062C30.0028 32.051 30.0028 32.1257 29.9132 32.1705L29.3159 32.8425C29.2263 32.8874 29.1964 32.8874 29.1068 32.8425L23.4467 27.4363L21.7591 29.2135C21.6695 29.3031 21.5948 29.3031 21.55 29.2135L20.9526 28.6609C20.9526 28.6609 20.9078 28.5414 20.9526 28.4966L25.2239 24.0611ZM31.9592 18.5952C32.0488 18.5504 32.0787 18.5504 32.1683 18.5952L32.6313 19.2224C32.6761 19.312 32.6761 19.3419 32.6313 19.4315L30.645 20.9548L35.5136 27.1227C35.5136 27.1227 35.5584 27.2422 35.4688 27.287L34.7968 27.8395C34.7072 27.9291 34.6773 27.9291 34.5877 27.8395L29.7639 21.6716L27.7776 23.1949C27.7328 23.2845 27.6581 23.2845 27.6133 23.1949L27.1056 22.5677C27.1056 22.5677 27.0608 22.4482 27.1504 22.4034L31.9742 18.5952H31.9592ZM39.516 14.4583C39.6056 14.4135 39.6355 14.4135 39.6803 14.5031L40.0537 15.22C40.0537 15.22 40.0537 15.3395 39.9641 15.3843L36.4993 17.1167L37.8135 19.7003L40.9796 18.0874C41.0692 18.0426 41.0991 18.0874 41.1439 18.1322L41.4874 18.8042C41.5322 18.8938 41.5322 18.9685 41.4426 19.0133L38.2765 20.6262L39.6654 23.2845L43.0854 21.5522C43.175 21.5074 43.2496 21.5074 43.2944 21.597L43.6379 22.3138C43.6827 22.4034 43.6827 22.4333 43.5931 22.4781L39.2024 24.7182C39.1128 24.7631 39.083 24.7182 39.0382 24.6286L35.0656 16.8478C35.0208 16.7582 35.0208 16.6836 35.1104 16.6388L39.5011 14.4434L39.516 14.4583ZM49.8805 16.9076C50.0896 17.5796 50.0896 18.177 49.8357 18.64C49.5818 19.1477 49.0741 19.5211 48.3572 19.775C46.9683 20.2379 46.0274 19.8198 45.5645 18.4159L44.5938 15.668C44.3399 14.996 44.3399 14.3986 44.5938 13.9356C44.8476 13.4727 45.3106 13.0844 46.0274 12.8305C46.7443 12.5766 47.2969 12.5766 47.7598 12.7409C48.178 12.95 48.5215 13.3383 48.6858 13.9207V13.9655C48.7306 14.0551 48.7753 14.0551 48.85 14.0551L49.7013 13.7564C49.7909 13.7116 49.8208 13.6369 49.7909 13.5473C49.537 12.6961 49.0293 12.1136 48.3124 11.7701C47.5956 11.4715 46.6995 11.5163 45.6839 11.8597C44.6684 12.2331 43.9516 12.7857 43.5633 13.5025C43.1451 14.2642 43.1451 15.1154 43.4737 16.0862L44.3996 18.7893C44.7431 19.76 45.2807 20.4022 46.0125 20.7308C46.7293 21.1041 47.5806 21.1041 48.5066 20.7756C49.1039 20.6113 49.5221 20.3126 49.8954 20.0139C50.2389 19.6704 50.4928 19.2971 50.6123 18.8341C50.7019 19.088 50.8214 19.3867 50.9857 19.6406C51.0305 19.6854 51.0753 19.7302 51.1499 19.6854L51.822 19.4315L51.9116 19.3867C51.9564 19.3419 51.9116 19.2971 51.9116 19.2672C51.7025 18.849 51.4934 18.3413 51.2843 17.7887L50.4032 15.2051C50.3584 15.1154 50.3136 15.1154 50.2389 15.1154L47.2819 16.1758C47.1923 16.1758 47.1923 16.2654 47.1923 16.3401L47.4462 17.0569C47.491 17.1465 47.5358 17.1465 47.6105 17.1465L49.6415 16.4297L49.8506 16.8926L49.8805 16.9076ZM60.7378 18.2218C60.7378 18.3114 60.7378 18.3413 60.6482 18.3413L59.6774 18.4607C59.5878 18.4607 59.5132 18.4159 59.4684 18.3711L58.5425 16.4745L54.6894 16.9822L54.2712 19.0581C54.2712 19.0581 54.2264 19.1477 54.1517 19.1776L53.2258 19.2672C53.1362 19.312 53.1063 19.2672 53.1063 19.1477L55.003 10.0527C55.0478 9.96308 55.0926 9.93322 55.1673 9.93322L56.3471 9.76894C56.4367 9.76894 56.5114 9.81374 56.5562 9.85854L60.7378 18.1919V18.2367V18.2218ZM54.8686 15.9368L58.1243 15.5187L55.8841 10.9039L54.8686 15.9368ZM68.5634 9.84361C70.6393 10.1423 71.5652 10.9786 71.4009 12.5019C71.3113 12.9649 71.1471 13.3532 70.8932 13.6369C70.5945 13.9356 70.1763 14.1447 69.6237 14.2642C70.8484 14.6375 71.401 15.4888 71.2367 16.803C71.1471 17.6095 70.7737 18.1919 70.1763 18.5354C69.5491 18.8789 68.653 18.9536 67.4732 18.8341L65.024 18.5354C64.9344 18.4906 64.9045 18.4458 64.9045 18.3711L65.9648 9.6644C66.0096 9.57479 66.0544 9.54492 66.1291 9.54492L68.5784 9.84361H68.5634ZM66.9953 10.6949L66.6518 13.5324L68.0108 13.6967C68.7277 13.7863 69.2355 13.7415 69.5789 13.5772C69.9224 13.3681 70.1315 13.0246 70.2062 12.5169C70.251 12.0091 70.1166 11.6357 69.8328 11.3818C69.5491 11.128 69.0264 10.9637 68.2199 10.8741L66.9953 10.7098V10.6949ZM66.5323 14.5031L66.159 17.6692L67.5479 17.8335C68.3991 17.9231 69.0264 17.8783 69.4147 17.714C69.788 17.5049 70.012 17.1166 70.0867 16.579C70.1614 16.0414 70.0419 15.6083 69.7133 15.2648C69.3699 14.9661 68.8322 14.757 68.0258 14.6674L66.5473 14.5031H66.5323ZM79.9733 12.4273C80.0629 12.4273 80.0928 12.5169 80.0629 12.5915L79.8538 13.3532C79.8538 13.4428 79.7642 13.4727 79.6895 13.4428L75.9708 12.3825L75.1644 15.1752L78.5844 16.1011C78.674 16.1459 78.7039 16.1907 78.7039 16.2654L78.4948 16.9822C78.45 17.0718 78.4052 17.1017 78.3305 17.0718L74.9105 16.1459L74.1041 19.0581L77.8227 20.0737C77.9124 20.1185 77.9422 20.1633 77.9123 20.2379L77.7032 20.9996C77.7032 21.0892 77.6137 21.1191 77.539 21.1191L72.8048 19.76C72.7152 19.76 72.7152 19.6704 72.7152 19.5958L75.0897 11.1877C75.1345 11.0981 75.1794 11.0682 75.254 11.0682L79.9882 12.4273H79.9733ZM85.5587 24.8228V24.9124C85.5587 24.9124 85.4691 24.9572 85.3944 24.9124L84.4685 24.4494C84.3789 24.4046 84.3789 24.3598 84.3789 24.2851L84.0354 19.9243L82.4673 19.1179L80.7797 22.4184C80.7349 22.508 80.6901 22.5378 80.6155 22.508L79.809 22.0898C79.7194 22.045 79.7194 22.0002 79.7642 21.9255L83.6919 14.0999C83.7367 14.0103 83.8114 13.9804 83.901 14.0103L86.2756 15.2349C87.2463 15.7427 87.8885 16.2953 88.1723 16.8777C88.4261 17.5049 88.3813 18.1471 88.0528 18.9088C87.7093 19.5062 87.3359 19.9243 86.873 20.1782C86.3652 20.3873 85.8574 20.4769 85.26 20.3425L85.5587 24.8228ZM84.2445 18.9386C84.9166 19.312 85.4691 19.4464 85.8873 19.3568C86.3055 19.2672 86.6489 18.9834 86.9476 18.4309C87.2015 17.9231 87.2463 17.5049 87.0671 17.1167C86.9028 16.7732 86.4697 16.4446 85.7977 16.0563L84.364 15.3395L82.8855 18.2517L84.2445 18.9237V18.9386ZM92.4883 30.0648L92.4435 30.1096C92.4435 30.1096 92.3539 30.1544 92.324 30.1096L91.4429 29.4375C91.3533 29.3927 91.3533 29.318 91.3533 29.2284L91.7714 23.9865L89.8299 24.33L88.0528 26.6149C87.9632 26.6597 87.9333 26.6597 87.8437 26.6149L87.1716 26.0623C87.082 26.0175 87.082 25.9429 87.1268 25.8533L92.5331 18.9984C92.6227 18.9088 92.6526 18.9088 92.7422 18.9536L93.459 19.5062C93.5038 19.5958 93.5486 19.6256 93.459 19.7152L90.8007 23.0904L96.64 22.0749C96.64 22.0749 96.7297 22.1197 96.8043 22.1645L97.7302 22.8813C97.7302 22.8813 97.775 22.9261 97.775 22.9709C97.775 23.0157 97.7302 23.0605 97.6854 23.0605L92.9512 23.8222L92.4883 30.0797V30.0648ZM96.2518 33.0218C96.7147 33.5295 97.2225 33.8282 97.7302 33.873C98.2828 33.9178 98.7906 33.7087 99.3431 33.2458L103.779 29.4375C103.823 29.3479 103.898 29.3479 103.943 29.4375L104.54 30.1096C104.63 30.1992 104.63 30.229 104.54 30.3186L100.105 34.0821C99.3432 34.7542 98.5367 35.0528 97.7302 34.9632C96.9238 34.8736 96.1621 34.4555 95.4901 33.6938C94.7732 32.8874 94.4746 32.051 94.5194 31.2446C94.5642 30.4381 94.9823 29.6765 95.7888 29.0044L100.179 25.241C100.269 25.1513 100.299 25.1962 100.344 25.241L100.941 25.913C101.031 26.0026 101.031 26.0325 100.941 26.1221L96.5056 29.9303C95.9978 30.3933 95.6992 30.9011 95.6544 31.4088C95.6095 31.9614 95.8187 32.4692 96.2518 33.0218ZM109.693 37.756C109.782 37.8456 109.738 37.8754 109.648 37.9202L109.021 38.3384C108.931 38.428 108.901 38.3832 108.812 38.2936L107.453 36.2177L100.896 40.489C100.807 40.5338 100.732 40.5338 100.687 40.4442L100.224 39.6825C100.18 39.5929 100.18 39.563 100.269 39.5182L106.825 35.247L105.466 33.1711C105.421 33.0815 105.421 33.0068 105.511 32.962L106.183 32.5439C106.273 32.4991 106.303 32.4991 106.347 32.5887L109.693 37.741V37.756ZM105.048 49.6288C104.958 49.6288 104.929 49.6288 104.884 49.5392L104.54 48.6133C104.54 48.6133 104.54 48.4938 104.585 48.449L106.198 47.0899L104.764 43.4609L102.688 43.5505C102.599 43.5505 102.524 43.5057 102.524 43.4609L102.181 42.5798C102.136 42.4902 102.181 42.4603 102.27 42.4603L111.574 42.0869C111.664 42.0869 111.694 42.1317 111.739 42.1765L112.157 43.3115C112.202 43.4012 112.202 43.4758 112.112 43.5206L105.093 49.6139L105.048 49.6587V49.6288ZM105.81 43.3265L107.034 46.4179L110.917 43.1174L105.795 43.3265H105.81Z" fill="url(#paint7_linear_1175_456)"/>
<defs>
<linearGradient id="paint0_linear_1175_456" x1="63.5229" y1="108.411" x2="161.926" y2="191.033" gradientUnits="userSpaceOnUse">
<stop stop-color="#3C3C3B"/>
<stop offset="0.36" stop-color="#3C3C3B"/>
<stop offset="0.84" stop-color="#3C3C3B"/>
<stop offset="0.93" stop-color="#8A8A87"/>
<stop offset="1" stop-color="#3C3C3B"/>
</linearGradient>
<linearGradient id="paint1_linear_1175_456" x1="18.4952" y1="75.3162" x2="257.354" y2="272.889" gradientUnits="userSpaceOnUse">
<stop stop-color="#3C3C3B"/>
<stop offset="0.31" stop-color="#B2B2AF"/>
<stop offset="0.68" stop-color="#3C3C3B"/>
<stop offset="0.76" stop-color="#9A9A99"/>
<stop offset="1" stop-color="#3C3C3B"/>
</linearGradient>
<linearGradient id="paint2_linear_1175_456" x1="21.2398" y1="78.5664" x2="250.728" y2="265.106" gradientUnits="userSpaceOnUse">
<stop stop-color="#3C3C3B"/>
<stop offset="0.31" stop-color="#B4B4B3"/>
<stop offset="0.68" stop-color="#3C3C3B"/>
<stop offset="0.76" stop-color="#8E8E8A"/>
<stop offset="1" stop-color="#3C3C3B"/>
</linearGradient>
<linearGradient id="paint3_linear_1175_456" x1="36.7889" y1="96.5514" x2="213.335" y2="221.862" gradientUnits="userSpaceOnUse">
<stop stop-color="#3C3C3B"/>
<stop offset="0.31" stop-color="#3C3C3B"/>
<stop offset="0.68" stop-color="#3C3C3B"/>
<stop offset="0.76" stop-color="#3C3C3B"/>
<stop offset="1" stop-color="#3C3C3B" stop-opacity="0.956863"/>
</linearGradient>
<linearGradient id="paint4_linear_1175_456" x1="38.5169" y1="89.5378" x2="205.245" y2="277.778" gradientUnits="userSpaceOnUse">
<stop stop-color="#3C3C3B"/>
<stop offset="0.31" stop-color="white"/>
<stop offset="0.6" stop-color="#3C3C3B"/>
<stop offset="0.76" stop-color="#3C3C3B"/>
<stop offset="1" stop-color="#3C3C3B"/>
</linearGradient>
<radialGradient id="paint5_radial_1175_456" cx="0" cy="0" r="1" gradientUnits="userSpaceOnUse" gradientTransform="translate(-45.5425 144.367) rotate(138.73) scale(22.5933 16.945)">
<stop stop-color="#3C3C3B"/>
<stop offset="1" stop-color="#3C3C3B"/>
</radialGradient>
<radialGradient id="paint6_radial_1175_456" cx="0" cy="0" r="1" gradientUnits="userSpaceOnUse" gradientTransform="translate(-31.3342 159.998) rotate(138.73) scale(22.5933 16.945)">
<stop stop-color="#3C3C3B"/>
<stop offset="1" stop-color="#3C3C3B"/>
</radialGradient>
<linearGradient id="paint7_linear_1175_456" x1="72.7546" y1="28.0086" x2="104.538" y2="128.732" gradientUnits="userSpaceOnUse">
<stop stop-color="#3C3C3B"/>
<stop offset="0.14" stop-color="white"/>
<stop offset="0.32" stop-color="#3C3C3B"/>
<stop offset="0.76" stop-color="#3C3C3B"/>
<stop offset="1" stop-color="#3C3C3B"/>
</linearGradient>
</defs>
</svg>
